<svg width="154" height="41" viewBox="0 0 154 41" fill="none" xmlns="http://www.w3.org/2000/svg">
<rect width="154" height="41" rx="8.4" fill="#96A96F"/>
<path d="M42.1888 20.7222C43.1162 20.9238 43.8285 21.327 44.3258 21.9318C44.8365 22.5232 45.0918 23.2893 45.0918 24.2301C45.0918 25.4397 44.6416 26.3738 43.7411 27.0323C42.8541 27.6774 41.537 28 39.7898 28H33.2982V13.888H39.3866C40.959 13.888 42.1754 14.2038 43.0355 14.8355C43.9091 15.4672 44.3459 16.361 44.3459 17.5168C44.3459 18.2963 44.151 18.9616 43.7613 19.5126C43.385 20.0502 42.8608 20.4534 42.1888 20.7222ZM34.7901 15.1178V20.2384H39.2858C40.4282 20.2384 41.3085 20.0234 41.9267 19.5933C42.545 19.1498 42.8541 18.5114 42.8541 17.6781C42.8541 16.8448 42.545 16.2131 41.9267 15.783C41.3085 15.3395 40.4282 15.1178 39.2858 15.1178H34.7901ZM39.7696 26.7702C41.033 26.7702 41.9872 26.5552 42.6323 26.1251C43.2774 25.695 43.6 25.023 43.6 24.1091C43.6 22.3485 42.3232 21.4682 39.7696 21.4682H34.7901V26.7702H39.7696ZM57.7504 17.3958V28H56.3795V26.0646C56.0032 26.7098 55.4858 27.2138 54.8272 27.5766C54.1687 27.9261 53.416 28.1008 52.5693 28.1008C51.185 28.1008 50.0896 27.7178 49.2832 26.9517C48.4903 26.1722 48.0938 25.0365 48.0938 23.5446V17.3958H49.5251V23.4035C49.5251 24.519 49.8007 25.3658 50.3517 25.9437C50.9027 26.5216 51.689 26.8106 52.7104 26.8106C53.8259 26.8106 54.7063 26.4746 55.3514 25.8026C55.9965 25.1171 56.3191 24.1696 56.3191 22.96V17.3958H57.7504ZM70.67 17.3958L65.3679 29.2701C64.9378 30.2646 64.4406 30.9702 63.8761 31.3869C63.3116 31.8035 62.6329 32.0118 61.8399 32.0118C61.3292 32.0118 60.8521 31.9312 60.4086 31.7699C59.965 31.6086 59.582 31.3667 59.2594 31.0442L59.9247 29.9757C60.4623 30.5133 61.1074 30.7821 61.8601 30.7821C62.3439 30.7821 62.7538 30.6477 63.0898 30.3789C63.4393 30.1101 63.7618 29.6531 64.0575 29.008L64.5212 27.9798L59.7836 17.3958H61.2754L65.2671 26.4074L69.2588 17.3958H70.67ZM90.0581 13.888V28H88.8283L79.7563 16.5491V28H78.2645V13.888H79.4942L88.5864 25.3389V13.888H90.0581ZM98.6962 28.1008C97.6747 28.1008 96.7541 27.8723 95.9343 27.4154C95.1144 26.945 94.4693 26.2998 93.9989 25.48C93.5285 24.6602 93.2933 23.7328 93.2933 22.6979C93.2933 21.663 93.5285 20.7357 93.9989 19.9158C94.4693 19.096 95.1144 18.4576 95.9343 18.0006C96.7541 17.5437 97.6747 17.3152 98.6962 17.3152C99.7176 17.3152 100.638 17.5437 101.458 18.0006C102.278 18.4576 102.916 19.096 103.373 19.9158C103.844 20.7357 104.079 21.663 104.079 22.6979C104.079 23.7328 103.844 24.6602 103.373 25.48C102.916 26.2998 102.278 26.945 101.458 27.4154C100.638 27.8723 99.7176 28.1008 98.6962 28.1008ZM98.6962 26.8307C99.4488 26.8307 100.121 26.6627 100.712 26.3267C101.317 25.9773 101.787 25.4867 102.123 24.855C102.459 24.2234 102.627 23.5043 102.627 22.6979C102.627 21.8915 102.459 21.1725 102.123 20.5408C101.787 19.9091 101.317 19.4253 100.712 19.0893C100.121 18.7398 99.4488 18.5651 98.6962 18.5651C97.9435 18.5651 97.2648 18.7398 96.66 19.0893C96.0687 19.4253 95.5983 19.9091 95.2488 20.5408C94.9128 21.1725 94.7448 21.8915 94.7448 22.6979C94.7448 23.5043 94.9128 24.2234 95.2488 24.855C95.5983 25.4867 96.0687 25.9773 96.66 26.3267C97.2648 26.6627 97.9435 26.8307 98.6962 26.8307ZM122.269 17.3958L118.258 28H116.907L113.56 19.311L110.214 28H108.863L104.871 17.3958H106.242L109.569 26.4074L112.976 17.3958H114.205L117.592 26.4074L120.959 17.3958H122.269Z" fill="white"/>
</svg>
