<svg width="118" height="41" viewBox="0 0 118 41" fill="none" xmlns="http://www.w3.org/2000/svg">
<rect width="118" height="41" rx="8.4" fill="#96A96F"/>
<path d="M43.2774 26.7098V28H33.2982V13.888H42.975V15.1782H34.7901V20.1981H42.088V21.4682H34.7901V26.7098H43.2774ZM51.8847 17.3152C53.2152 17.3152 54.2703 17.705 55.0498 18.4845C55.8427 19.2506 56.2392 20.3728 56.2392 21.8512V28H54.8079V21.9923C54.8079 20.8902 54.5323 20.0502 53.9813 19.4723C53.4303 18.8944 52.644 18.6054 51.6226 18.6054C50.4802 18.6054 49.573 18.9482 48.901 19.6336C48.2424 20.3056 47.9131 21.2397 47.9131 22.4358V28H46.4818V17.3958H47.8527V19.3514C48.2424 18.7062 48.78 18.209 49.4655 17.8595C50.1643 17.4966 50.9707 17.3152 51.8847 17.3152ZM65.7095 27.3549C65.4407 27.5968 65.1047 27.785 64.7015 27.9194C64.3118 28.0403 63.9019 28.1008 63.4718 28.1008C62.4772 28.1008 61.7111 27.832 61.1735 27.2944C60.6359 26.7568 60.3671 25.9974 60.3671 25.0163V18.6054H58.4721V17.3958H60.3671V15.0774H61.7985V17.3958H65.0241V18.6054H61.7985V24.9357C61.7985 25.5674 61.9531 26.0512 62.2622 26.3872C62.5847 26.7098 63.0417 26.871 63.6331 26.871C63.9287 26.871 64.211 26.824 64.4798 26.7299C64.762 26.6358 65.0039 26.5014 65.2055 26.3267L65.7095 27.3549ZM77.1744 23.1414H68.304C68.3847 24.2435 68.808 25.1373 69.5741 25.8227C70.3402 26.4947 71.3079 26.8307 72.4772 26.8307C73.1357 26.8307 73.7405 26.7165 74.2916 26.488C74.8426 26.2461 75.3197 25.8966 75.7229 25.4397L76.5293 26.367C76.0589 26.9315 75.4676 27.3616 74.7552 27.6573C74.0564 27.953 73.2836 28.1008 72.4368 28.1008C71.3482 28.1008 70.3805 27.8723 69.5338 27.4154C68.7005 26.945 68.0487 26.2998 67.5783 25.48C67.1079 24.6602 66.8727 23.7328 66.8727 22.6979C66.8727 21.663 67.0944 20.7357 67.538 19.9158C67.9949 19.096 68.6132 18.4576 69.3927 18.0006C70.1856 17.5437 71.0727 17.3152 72.0538 17.3152C73.0349 17.3152 73.9152 17.5437 74.6948 18.0006C75.4743 18.4576 76.0858 19.096 76.5293 19.9158C76.9728 20.7222 77.1946 21.6496 77.1946 22.6979L77.1744 23.1414ZM72.0538 18.545C71.0324 18.545 70.1722 18.8742 69.4733 19.5328C68.7879 20.1779 68.3981 21.0246 68.304 22.073H75.8237C75.7296 21.0246 75.3332 20.1779 74.6343 19.5328C73.9488 18.8742 73.0887 18.545 72.0538 18.545ZM81.4789 19.4723C81.8149 18.76 82.3122 18.2224 82.9707 17.8595C83.6427 17.4966 84.4693 17.3152 85.4504 17.3152V18.7062L85.1077 18.6861C83.9922 18.6861 83.1186 19.0288 82.4869 19.7142C81.8552 20.3997 81.5394 21.3606 81.5394 22.5971V28H80.108V17.3958H81.4789V19.4723Z" fill="white"/>
</svg>
