<svg width="207" height="41" viewBox="0 0 207 41" fill="none" xmlns="http://www.w3.org/2000/svg">
<rect width="207" height="41" rx="8.4" fill="#333333"/>
<path d="M33.2982 13.888H34.7901V26.7098H42.6928V28H33.2982V13.888ZM53.9432 23.1414H45.0728C45.1534 24.2435 45.5768 25.1373 46.3429 25.8227C47.1089 26.4947 48.0766 26.8307 49.2459 26.8307C49.9045 26.8307 50.5093 26.7165 51.0603 26.488C51.6113 26.2461 52.0885 25.8966 52.4917 25.4397L53.2981 26.367C52.8277 26.9315 52.2363 27.3616 51.524 27.6573C50.8251 27.953 50.0523 28.1008 49.2056 28.1008C48.1169 28.1008 47.1493 27.8723 46.3025 27.4154C45.4693 26.945 44.8174 26.2998 44.347 25.48C43.8766 24.6602 43.6414 23.7328 43.6414 22.6979C43.6414 21.663 43.8632 20.7357 44.3067 19.9158C44.7637 19.096 45.3819 18.4576 46.1614 18.0006C46.9544 17.5437 47.8414 17.3152 48.8225 17.3152C49.8037 17.3152 50.684 17.5437 51.4635 18.0006C52.243 18.4576 52.8545 19.096 53.2981 19.9158C53.7416 20.7222 53.9633 21.6496 53.9633 22.6979L53.9432 23.1414ZM48.8225 18.545C47.8011 18.545 46.9409 18.8742 46.2421 19.5328C45.5566 20.1779 45.1669 21.0246 45.0728 22.073H52.5925C52.4984 21.0246 52.1019 20.1779 51.403 19.5328C50.7176 18.8742 49.8574 18.545 48.8225 18.545ZM60.2909 17.3152C61.6752 17.3152 62.737 17.6646 63.4762 18.3635C64.2154 19.049 64.585 20.0704 64.585 21.4278V28H63.2141V26.3469C62.8915 26.8979 62.4144 27.328 61.7827 27.6371C61.1645 27.9462 60.4253 28.1008 59.5651 28.1008C58.3824 28.1008 57.4416 27.8186 56.7427 27.2541C56.0439 26.6896 55.6944 25.9437 55.6944 25.0163C55.6944 24.1158 56.017 23.3901 56.6621 22.839C57.3207 22.288 58.3623 22.0125 59.7869 22.0125H63.1536V21.3674C63.1536 20.4534 62.8983 19.7613 62.3875 19.2909C61.8768 18.807 61.1309 18.5651 60.1498 18.5651C59.4778 18.5651 58.8327 18.6794 58.2144 18.9078C57.5962 19.1229 57.0653 19.4253 56.6218 19.815L55.9767 18.7466C56.5143 18.2896 57.1594 17.9402 57.912 17.6982C58.6647 17.4429 59.4576 17.3152 60.2909 17.3152ZM59.7869 26.9718C60.5933 26.9718 61.2855 26.7904 61.8634 26.4275C62.4413 26.0512 62.8714 25.5136 63.1536 24.8147V23.081H59.8272C58.0128 23.081 57.1056 23.7126 57.1056 24.976C57.1056 25.5942 57.3408 26.0848 57.8112 26.4477C58.2816 26.7971 58.9402 26.9718 59.7869 26.9718ZM69.8436 19.4723C70.1796 18.76 70.6769 18.2224 71.3354 17.8595C72.0074 17.4966 72.834 17.3152 73.8151 17.3152V18.7062L73.4724 18.6861C72.3569 18.6861 71.4833 19.0288 70.8516 19.7142C70.2199 20.3997 69.9041 21.3606 69.9041 22.5971V28H68.4727V17.3958H69.8436V19.4723ZM81.8097 17.3152C83.1402 17.3152 84.1953 17.705 84.9748 18.4845C85.7677 19.2506 86.1642 20.3728 86.1642 21.8512V28H84.7329V21.9923C84.7329 20.8902 84.4573 20.0502 83.9063 19.4723C83.3553 18.8944 82.569 18.6054 81.5476 18.6054C80.4052 18.6054 79.498 18.9482 78.826 19.6336C78.1674 20.3056 77.8381 21.2397 77.8381 22.4358V28H76.4068V17.3958H77.7777V19.3514C78.1674 18.7062 78.705 18.209 79.3905 17.8595C80.0893 17.4966 80.8957 17.3152 81.8097 17.3152ZM110.285 13.888V28H108.854V16.7104L103.31 26.2058H102.604L97.0602 16.7709V28H95.6289V13.888H96.8586L102.987 24.351L109.055 13.888H110.285ZM118.915 28.1008C117.894 28.1008 116.973 27.8723 116.153 27.4154C115.333 26.945 114.688 26.2998 114.218 25.48C113.748 24.6602 113.512 23.7328 113.512 22.6979C113.512 21.663 113.748 20.7357 114.218 19.9158C114.688 19.096 115.333 18.4576 116.153 18.0006C116.973 17.5437 117.894 17.3152 118.915 17.3152C119.937 17.3152 120.857 17.5437 121.677 18.0006C122.497 18.4576 123.135 19.096 123.592 19.9158C124.063 20.7357 124.298 21.663 124.298 22.6979C124.298 23.7328 124.063 24.6602 123.592 25.48C123.135 26.2998 122.497 26.945 121.677 27.4154C120.857 27.8723 119.937 28.1008 118.915 28.1008ZM118.915 26.8307C119.668 26.8307 120.34 26.6627 120.931 26.3267C121.536 25.9773 122.006 25.4867 122.342 24.855C122.678 24.2234 122.846 23.5043 122.846 22.6979C122.846 21.8915 122.678 21.1725 122.342 20.5408C122.006 19.9091 121.536 19.4253 120.931 19.0893C120.34 18.7398 119.668 18.5651 118.915 18.5651C118.163 18.5651 117.484 18.7398 116.879 19.0893C116.288 19.4253 115.817 19.9091 115.468 20.5408C115.132 21.1725 114.964 21.8915 114.964 22.6979C114.964 23.5043 115.132 24.2234 115.468 24.855C115.817 25.4867 116.288 25.9773 116.879 26.3267C117.484 26.6627 118.163 26.8307 118.915 26.8307ZM128.591 19.4723C128.927 18.76 129.424 18.2224 130.083 17.8595C130.755 17.4966 131.581 17.3152 132.563 17.3152V18.7062L132.22 18.6861C131.104 18.6861 130.231 19.0288 129.599 19.7142C128.967 20.3997 128.652 21.3606 128.652 22.5971V28H127.22V17.3958H128.591V19.4723ZM144.289 23.1414H135.419C135.499 24.2435 135.923 25.1373 136.689 25.8227C137.455 26.4947 138.423 26.8307 139.592 26.8307C140.25 26.8307 140.855 26.7165 141.406 26.488C141.957 26.2461 142.434 25.8966 142.838 25.4397L143.644 26.367C143.174 26.9315 142.582 27.3616 141.87 27.6573C141.171 27.953 140.398 28.1008 139.552 28.1008C138.463 28.1008 137.495 27.8723 136.648 27.4154C135.815 26.945 135.163 26.2998 134.693 25.48C134.223 24.6602 133.987 23.7328 133.987 22.6979C133.987 21.663 134.209 20.7357 134.653 19.9158C135.11 19.096 135.728 18.4576 136.507 18.0006C137.3 17.5437 138.187 17.3152 139.168 17.3152C140.15 17.3152 141.03 17.5437 141.809 18.0006C142.589 18.4576 143.2 19.096 143.644 19.9158C144.088 20.7222 144.309 21.6496 144.309 22.6979L144.289 23.1414ZM139.168 18.545C138.147 18.545 137.287 18.8742 136.588 19.5328C135.903 20.1779 135.513 21.0246 135.419 22.073H142.938C142.844 21.0246 142.448 20.1779 141.749 19.5328C141.064 18.8742 140.203 18.545 139.168 18.545Z" fill="white"/>
<path d="M166.707 25.207L170.707 21.2073C170.894 21.0193 170.998 20.765 170.998 20.4999C170.998 20.2349 170.894 19.9806 170.707 19.7926L166.707 15.793C166.519 15.6082 166.265 15.5053 166.002 15.5065C165.738 15.5077 165.486 15.6129 165.299 15.7993C165.113 15.9857 165.008 16.2382 165.007 16.5018C165.005 16.7654 165.108 17.0189 165.293 17.207L167.586 19.5H162C161.735 19.5 161.48 19.6053 161.293 19.7928C161.105 19.9804 161 20.2347 161 20.5C161 20.7652 161.105 21.0195 161.293 21.2071C161.48 21.3946 161.735 21.5 162 21.5H167.586L165.293 23.793C165.107 23.9809 165.004 24.2346 165.005 24.4987C165.005 24.7628 165.111 25.0158 165.297 25.2026C165.484 25.3893 165.737 25.4946 166.001 25.4954C166.265 25.4962 166.519 25.3925 166.707 25.207Z" fill="#6563FF"/>
<path d="M176 20.5C176 18.5222 175.414 16.5888 174.315 14.9443C173.216 13.2998 171.654 12.0181 169.827 11.2612C168 10.5043 165.989 10.3063 164.049 10.6922C162.109 11.078 160.327 12.0304 158.929 13.4289C157.53 14.8275 156.578 16.6093 156.192 18.5491C155.806 20.4889 156.004 22.4996 156.761 24.3268C157.518 26.1541 158.8 27.7159 160.444 28.8147C162.089 29.9135 164.022 30.5 166 30.5C168.651 30.4971 171.193 29.4425 173.068 27.5678C174.943 25.6931 175.997 23.1513 176 20.5ZM165.293 25.207C165.2 25.1142 165.126 25.004 165.076 24.8826C165.026 24.7613 165 24.6313 165 24.5C165 24.3687 165.026 24.2386 165.076 24.1173C165.126 23.996 165.2 23.8858 165.293 23.7929L167.586 21.5H162C161.735 21.5 161.48 21.3946 161.293 21.2071C161.105 21.0196 161 20.7652 161 20.5C161 20.2348 161.105 19.9804 161.293 19.7929C161.48 19.6054 161.735 19.5 162 19.5H167.586L165.293 17.207C165.108 17.0189 165.005 16.7655 165.007 16.5019C165.008 16.2383 165.113 15.9858 165.299 15.7994C165.486 15.613 165.738 15.5077 166.002 15.5065C166.265 15.5053 166.519 15.6083 166.707 15.793L170.707 19.7927C170.894 19.9807 170.998 20.235 170.998 20.5C170.998 20.7651 170.894 21.0194 170.707 21.2074L166.707 25.207C166.614 25.2999 166.504 25.3735 166.383 25.4238C166.261 25.4741 166.131 25.4999 166 25.4999C165.869 25.4999 165.739 25.4741 165.617 25.4238C165.496 25.3735 165.386 25.2999 165.293 25.207Z" fill="#B2B1FF"/>
</svg>
