<svg width="180" height="41" viewBox="0 0 180 41" fill="none" xmlns="http://www.w3.org/2000/svg">
<rect width="180" height="41" rx="8.4" fill="#81905F"/>
<path d="M47.9546 13.888V28H46.5232V16.7104L40.9792 26.2058H40.2736L34.7296 16.7709V28H33.2982V13.888H34.528L40.6566 24.351L46.7248 13.888H47.9546ZM55.9597 17.3152C57.344 17.3152 58.4057 17.6646 59.1449 18.3635C59.8841 19.049 60.2537 20.0704 60.2537 21.4278V28H58.8829V26.3469C58.5603 26.8979 58.0832 27.328 57.4515 27.6371C56.8333 27.9462 56.0941 28.1008 55.2339 28.1008C54.0512 28.1008 53.1104 27.8186 52.4115 27.2541C51.7126 26.6896 51.3632 25.9437 51.3632 25.0163C51.3632 24.1158 51.6857 23.3901 52.3309 22.839C52.9894 22.288 54.031 22.0125 55.4557 22.0125H58.8224V21.3674C58.8224 20.4534 58.567 19.7613 58.0563 19.2909C57.5456 18.807 56.7997 18.5651 55.8185 18.5651C55.1465 18.5651 54.5014 18.6794 53.8832 18.9078C53.2649 19.1229 52.7341 19.4253 52.2905 19.815L51.6454 18.7466C52.183 18.2896 52.8281 17.9402 53.5808 17.6982C54.3334 17.4429 55.1264 17.3152 55.9597 17.3152ZM55.4557 26.9718C56.2621 26.9718 56.9542 26.7904 57.5321 26.4275C58.1101 26.0512 58.5401 25.5136 58.8224 24.8147V23.081H55.496C53.6816 23.081 52.7744 23.7126 52.7744 24.976C52.7744 25.5942 53.0096 26.0848 53.48 26.4477C53.9504 26.7971 54.6089 26.9718 55.4557 26.9718ZM68.0727 22.6778L65.5728 24.976V28H64.1415V13.0413H65.5728V23.1818L71.9031 17.3958H73.6771L69.1411 21.7302L74.1005 28H72.3466L68.0727 22.6778ZM85.0494 23.1414H76.179C76.2597 24.2435 76.683 25.1373 77.4491 25.8227C78.2152 26.4947 79.1829 26.8307 80.3522 26.8307C81.0107 26.8307 81.6155 26.7165 82.1666 26.488C82.7176 26.2461 83.1947 25.8966 83.5979 25.4397L84.4043 26.367C83.9339 26.9315 83.3426 27.3616 82.6302 27.6573C81.9314 27.953 81.1586 28.1008 80.3118 28.1008C79.2232 28.1008 78.2555 27.8723 77.4088 27.4154C76.5755 26.945 75.9237 26.2998 75.4533 25.48C74.9829 24.6602 74.7477 23.7328 74.7477 22.6979C74.7477 21.663 74.9694 20.7357 75.413 19.9158C75.8699 19.096 76.4882 18.4576 77.2677 18.0006C78.0606 17.5437 78.9477 17.3152 79.9288 17.3152C80.9099 17.3152 81.7902 17.5437 82.5698 18.0006C83.3493 18.4576 83.9608 19.096 84.4043 19.9158C84.8478 20.7222 85.0696 21.6496 85.0696 22.6979L85.0494 23.1414ZM79.9288 18.545C78.9074 18.545 78.0472 18.8742 77.3483 19.5328C76.6629 20.1779 76.2731 21.0246 76.179 22.073H83.6987C83.6046 21.0246 83.2082 20.1779 82.5093 19.5328C81.8238 18.8742 80.9637 18.545 79.9288 18.545ZM95.0737 28.121C94.2673 28.121 93.5214 27.9462 92.8359 27.5968C92.1505 27.2474 91.5927 26.7501 91.1626 26.105L92.0497 25.097C92.8292 26.2528 93.8439 26.8307 95.0938 26.8307C96.841 26.8307 97.7146 25.7958 97.7146 23.7261V15.1782H92.5537V13.888H99.1863V23.6656C99.1863 25.144 98.8369 26.2595 98.138 27.0122C97.4526 27.7514 96.4311 28.121 95.0737 28.121ZM112.592 23.1414H103.722C103.802 24.2435 104.226 25.1373 104.992 25.8227C105.758 26.4947 106.726 26.8307 107.895 26.8307C108.554 26.8307 109.158 26.7165 109.709 26.488C110.26 26.2461 110.738 25.8966 111.141 25.4397L111.947 26.367C111.477 26.9315 110.885 27.3616 110.173 27.6573C109.474 27.953 108.701 28.1008 107.855 28.1008C106.766 28.1008 105.798 27.8723 104.952 27.4154C104.118 26.945 103.466 26.2998 102.996 25.48C102.526 24.6602 102.29 23.7328 102.29 22.6979C102.29 21.663 102.512 20.7357 102.956 19.9158C103.413 19.096 104.031 18.4576 104.81 18.0006C105.603 17.5437 106.49 17.3152 107.472 17.3152C108.453 17.3152 109.333 17.5437 110.113 18.0006C110.892 18.4576 111.504 19.096 111.947 19.9158C112.391 20.7222 112.612 21.6496 112.612 22.6979L112.592 23.1414ZM107.472 18.545C106.45 18.545 105.59 18.8742 104.891 19.5328C104.206 20.1779 103.816 21.0246 103.722 22.073H111.242C111.147 21.0246 110.751 20.1779 110.052 19.5328C109.367 18.8742 108.506 18.545 107.472 18.545ZM118.94 17.3152C120.324 17.3152 121.386 17.6646 122.125 18.3635C122.864 19.049 123.234 20.0704 123.234 21.4278V28H121.863V26.3469C121.541 26.8979 121.063 27.328 120.432 27.6371C119.814 27.9462 119.074 28.1008 118.214 28.1008C117.031 28.1008 116.091 27.8186 115.392 27.2541C114.693 26.6896 114.343 25.9437 114.343 25.0163C114.343 24.1158 114.666 23.3901 115.311 22.839C115.97 22.288 117.011 22.0125 118.436 22.0125H121.803V21.3674C121.803 20.4534 121.547 19.7613 121.037 19.2909C120.526 18.807 119.78 18.5651 118.799 18.5651C118.127 18.5651 117.482 18.6794 116.863 18.9078C116.245 19.1229 115.714 19.4253 115.271 19.815L114.626 18.7466C115.163 18.2896 115.808 17.9402 116.561 17.6982C117.314 17.4429 118.107 17.3152 118.94 17.3152ZM118.436 26.9718C119.242 26.9718 119.935 26.7904 120.512 26.4275C121.09 26.0512 121.52 25.5136 121.803 24.8147V23.081H118.476C116.662 23.081 115.755 23.7126 115.755 24.976C115.755 25.5942 115.99 26.0848 116.46 26.4477C116.931 26.7971 117.589 26.9718 118.436 26.9718ZM132.525 17.3152C133.855 17.3152 134.91 17.705 135.69 18.4845C136.483 19.2506 136.879 20.3728 136.879 21.8512V28H135.448V21.9923C135.448 20.8902 135.172 20.0502 134.621 19.4723C134.07 18.8944 133.284 18.6054 132.263 18.6054C131.12 18.6054 130.213 18.9482 129.541 19.6336C128.882 20.3056 128.553 21.2397 128.553 22.4358V28H127.122V17.3958H128.493V19.3514C128.882 18.7062 129.42 18.209 130.105 17.8595C130.804 17.4966 131.611 17.3152 132.525 17.3152ZM143.608 28.1008C142.748 28.1008 141.921 27.9798 141.128 27.7379C140.349 27.4826 139.737 27.1667 139.294 26.7904L139.939 25.6614C140.382 26.0109 140.94 26.2998 141.612 26.5283C142.284 26.7434 142.983 26.8509 143.709 26.8509C144.676 26.8509 145.389 26.703 145.846 26.4074C146.316 26.0982 146.551 25.6682 146.551 25.1171C146.551 24.7274 146.423 24.425 146.168 24.2099C145.913 23.9814 145.59 23.8134 145.2 23.7059C144.811 23.585 144.293 23.4707 143.648 23.3632C142.788 23.2019 142.096 23.0406 141.572 22.8794C141.047 22.7046 140.597 22.4157 140.221 22.0125C139.858 21.6093 139.677 21.0515 139.677 20.3392C139.677 19.4522 140.046 18.7264 140.785 18.1619C141.525 17.5974 142.553 17.3152 143.87 17.3152C144.555 17.3152 145.241 17.4093 145.926 17.5974C146.612 17.7722 147.176 18.0074 147.62 18.303L146.995 19.4522C146.121 18.8474 145.079 18.545 143.87 18.545C142.956 18.545 142.264 18.7062 141.793 19.0288C141.336 19.3514 141.108 19.7747 141.108 20.2989C141.108 20.7021 141.236 21.0246 141.491 21.2666C141.76 21.5085 142.089 21.6899 142.479 21.8109C142.869 21.9184 143.406 22.0326 144.092 22.1536C144.938 22.3149 145.617 22.4762 146.128 22.6374C146.638 22.7987 147.075 23.0742 147.438 23.464C147.801 23.8538 147.982 24.3914 147.982 25.0768C147.982 26.0042 147.593 26.7434 146.813 27.2944C146.047 27.832 144.979 28.1008 143.608 28.1008Z" fill="white"/>
</svg>
