<svg width="60" height="68" viewBox="0 0 60 68" fill="none" xmlns="http://www.w3.org/2000/svg">
<path d="M56.6666 20.4569L36.6667 2.59426C34.8333 0.923617 32.4599 0 30.0001 0C27.5403 0 25.1669 0.923617 23.3335 2.59426L3.33363 20.4569C2.27486 21.4216 1.42997 22.605 0.855216 23.9284C0.28046 25.2517 -0.0109751 26.6846 0.000315978 28.1317V57.8122C0.000315978 60.5142 1.05388 63.1055 2.92923 65.0161C4.80458 66.9266 7.3481 68 10.0002 68H50C52.6521 68 55.1956 66.9266 57.071 65.0161C58.9463 63.1055 59.9999 60.5142 59.9999 57.8122V28.0977C60.0064 26.6564 59.7127 25.23 59.1381 23.9129C58.5635 22.5957 57.7211 21.4178 56.6666 20.4569V20.4569ZM36.6667 61.2081H23.3335V44.2284C23.3335 43.3278 23.6847 42.464 24.3098 41.8272C24.9349 41.1903 25.7827 40.8325 26.6668 40.8325H33.3334C34.2175 40.8325 35.0653 41.1903 35.6904 41.8272C36.3155 42.464 36.6667 43.3278 36.6667 44.2284V61.2081ZM53.3333 57.8122C53.3333 58.7128 52.9821 59.5766 52.357 60.2135C51.7319 60.8503 50.884 61.2081 50 61.2081H43.3333V44.2284C43.3333 41.5265 42.2798 38.9352 40.4044 37.0246C38.5291 35.114 35.9856 34.0406 33.3334 34.0406H26.6668C24.0146 34.0406 21.4711 35.114 19.5958 37.0246C17.7204 38.9352 16.6669 41.5265 16.6669 44.2284V61.2081H10.0002C9.1162 61.2081 8.26836 60.8503 7.64324 60.2135C7.01812 59.5766 6.66694 58.7128 6.66694 57.8122V28.0977C6.66753 27.6156 6.76891 27.1391 6.96432 26.6999C7.15974 26.2608 7.4447 25.869 7.80026 25.5508L27.8001 7.72213C28.4084 7.17769 29.1904 6.87744 30.0001 6.87744C30.8098 6.87744 31.5918 7.17769 32.2001 7.72213L52.1999 25.5508C52.5555 25.869 52.8405 26.2608 53.0359 26.6999C53.2313 27.1391 53.3327 27.6156 53.3333 28.0977V57.8122Z" fill="#333333"/>
</svg>
