<svg width="269" height="491" viewBox="0 0 269 491" fill="none" xmlns="http://www.w3.org/2000/svg">
<rect x="4" y="51" width="101" height="4" fill="#19AFF0"/>
<rect x="4" y="319" width="52" height="4" fill="#19AFF0"/>
<path d="M14.3524 9.27341C17.555 9.27341 20.0748 10.0388 21.9116 11.5695C23.7485 13.1001 24.6669 15.2078 24.6669 17.8924C24.6669 20.577 23.7485 22.6846 21.9116 24.2153C20.0748 25.746 17.555 26.5114 14.3524 26.5114H8.24136V34H4.70899V9.27341H14.3524ZM14.2464 23.4382C16.4836 23.4382 18.1909 22.9672 19.3683 22.0253C20.5458 21.0598 21.1345 19.6821 21.1345 17.8924C21.1345 16.1027 20.5458 14.7368 19.3683 13.7948C18.1909 12.8293 16.4836 12.3466 14.2464 12.3466H8.24136V23.4382H14.2464ZM36.0069 15.1018C38.5973 15.1018 40.5754 15.7376 41.9413 17.0093C43.3307 18.281 44.0254 20.1767 44.0254 22.6964V34H40.8109V31.5273C40.2457 32.3987 39.4333 33.0698 38.3736 33.5408C37.3374 33.9882 36.1011 34.2119 34.6646 34.2119C32.5687 34.2119 30.885 33.7056 29.6133 32.693C28.3652 31.6804 27.7411 30.3499 27.7411 28.7014C27.7411 27.053 28.3416 25.7343 29.5426 24.7452C30.7437 23.7326 32.6511 23.2263 35.2651 23.2263H40.6343V22.5551C40.6343 21.0951 40.2104 19.9765 39.3626 19.1994C38.5149 18.4222 37.2668 18.0337 35.6183 18.0337C34.5115 18.0337 33.4283 18.2221 32.3685 18.5989C31.3088 18.9521 30.414 19.4349 29.6839 20.0471L28.271 17.5038C29.2365 16.7267 30.3904 16.138 31.7327 15.7376C33.075 15.3138 34.4997 15.1018 36.0069 15.1018ZM35.2298 31.598C36.525 31.598 37.6436 31.3154 38.5855 30.7502C39.5275 30.1615 40.2104 29.3373 40.6343 28.2776V25.6636H35.4064C32.5334 25.6636 31.0969 26.6291 31.0969 28.5602C31.0969 29.5021 31.4619 30.2439 32.1919 30.7855C32.922 31.3272 33.9346 31.598 35.2298 31.598ZM53.5506 18.4222C54.1393 17.339 55.0107 16.5148 56.1646 15.9496C57.3185 15.3844 58.7197 15.1018 60.3681 15.1018V18.3869C60.1797 18.3634 59.9207 18.3516 59.591 18.3516C57.7541 18.3516 56.3059 18.905 55.2462 20.0118C54.21 21.0951 53.6919 22.6493 53.6919 24.6745V34H50.3008V15.2784H53.5506V18.4222ZM71.3306 15.1018C73.921 15.1018 75.8991 15.7376 77.265 17.0093C78.6544 18.281 79.3491 20.1767 79.3491 22.6964V34H76.1346V31.5273C75.5694 32.3987 74.757 33.0698 73.6973 33.5408C72.6611 33.9882 71.4248 34.2119 69.9883 34.2119C67.8924 34.2119 66.2086 33.7056 64.937 32.693C63.6889 31.6804 63.0648 30.3499 63.0648 28.7014C63.0648 27.053 63.6653 25.7343 64.8663 24.7452C66.0674 23.7326 67.9748 23.2263 70.5888 23.2263H75.958V22.5551C75.958 21.0951 75.5341 19.9765 74.6863 19.1994C73.8386 18.4222 72.5905 18.0337 70.942 18.0337C69.8352 18.0337 68.752 18.2221 67.6922 18.5989C66.6325 18.9521 65.7377 19.4349 65.0076 20.0471L63.5947 17.5038C64.5602 16.7267 65.7141 16.138 67.0564 15.7376C68.3987 15.3138 69.8234 15.1018 71.3306 15.1018ZM70.5535 31.598C71.8487 31.598 72.9672 31.3154 73.9092 30.7502C74.8512 30.1615 75.5341 29.3373 75.958 28.2776V25.6636H70.7301C67.8571 25.6636 66.4206 26.6291 66.4206 28.5602C66.4206 29.5021 66.7856 30.2439 67.5156 30.7855C68.2456 31.3272 69.2583 31.598 70.5535 31.598ZM103.637 15.2784V31.4567C103.637 34.73 102.825 37.1438 101.2 38.6981C99.5749 40.2758 97.1494 41.0647 93.9231 41.0647C92.1569 41.0647 90.4732 40.8175 88.8718 40.3229C87.2705 39.852 85.9753 39.169 84.9862 38.2742L86.6111 35.6602C87.4824 36.4138 88.5539 37.0025 89.8256 37.4264C91.1208 37.8738 92.4513 38.0975 93.8171 38.0975C96.0072 38.0975 97.6203 37.5795 98.6565 36.5433C99.7162 35.5071 100.246 33.9294 100.246 31.8099V30.3263C99.4454 31.2918 98.4563 32.0219 97.2789 32.5164C96.125 32.9874 94.8651 33.2229 93.4992 33.2229C91.7095 33.2229 90.0846 32.8461 88.6246 32.0925C87.1881 31.3154 86.0577 30.2439 85.2335 28.8781C84.4093 27.4887 83.9972 25.9109 83.9972 24.1447C83.9972 22.3785 84.4093 20.8125 85.2335 19.4466C86.0577 18.0572 87.1881 16.9858 88.6246 16.2322C90.0846 15.4786 91.7095 15.1018 93.4992 15.1018C94.9122 15.1018 96.2192 15.3609 97.4202 15.8789C98.6447 16.397 99.6456 17.1624 100.423 18.175V15.2784H103.637ZM93.8878 30.2557C95.1124 30.2557 96.2074 29.9966 97.1729 29.4786C98.162 28.9605 98.9273 28.2422 99.4689 27.3238C100.034 26.3819 100.317 25.3221 100.317 24.1447C100.317 22.3314 99.7162 20.8714 98.5152 19.7645C97.3142 18.6342 95.7717 18.069 93.8878 18.069C91.9803 18.069 90.4261 18.6342 89.2251 19.7645C88.0241 20.8714 87.4236 22.3314 87.4236 24.1447C87.4236 25.3221 87.6944 26.3819 88.236 27.3238C88.8012 28.2422 89.5665 28.9605 90.532 29.4786C91.5211 29.9966 92.6397 30.2557 93.8878 30.2557ZM113.366 18.4222C113.955 17.339 114.826 16.5148 115.98 15.9496C117.134 15.3844 118.535 15.1018 120.184 15.1018V18.3869C119.995 18.3634 119.736 18.3516 119.407 18.3516C117.57 18.3516 116.122 18.905 115.062 20.0118C114.026 21.0951 113.508 22.6493 113.508 24.6745V34H110.117V15.2784H113.366V18.4222ZM131.146 15.1018C133.737 15.1018 135.715 15.7376 137.081 17.0093C138.47 18.281 139.165 20.1767 139.165 22.6964V34H135.95V31.5273C135.385 32.3987 134.573 33.0698 133.513 33.5408C132.477 33.9882 131.24 34.2119 129.804 34.2119C127.708 34.2119 126.024 33.7056 124.753 32.693C123.505 31.6804 122.881 30.3499 122.881 28.7014C122.881 27.053 123.481 25.7343 124.682 24.7452C125.883 23.7326 127.791 23.2263 130.404 23.2263H135.774V22.5551C135.774 21.0951 135.35 19.9765 134.502 19.1994C133.654 18.4222 132.406 18.0337 130.758 18.0337C129.651 18.0337 128.568 18.2221 127.508 18.5989C126.448 18.9521 125.553 19.4349 124.823 20.0471L123.41 17.5038C124.376 16.7267 125.53 16.138 126.872 15.7376C128.214 15.3138 129.639 15.1018 131.146 15.1018ZM130.369 31.598C131.664 31.598 132.783 31.3154 133.725 30.7502C134.667 30.1615 135.35 29.3373 135.774 28.2776V25.6636H130.546C127.673 25.6636 126.236 26.6291 126.236 28.5602C126.236 29.5021 126.601 30.2439 127.331 30.7855C128.061 31.3272 129.074 31.598 130.369 31.598ZM155.366 15.1018C157.179 15.1018 158.804 15.5022 160.241 16.3028C161.677 17.1035 162.796 18.2221 163.597 19.6586C164.421 21.0951 164.833 22.7553 164.833 24.6392C164.833 26.5232 164.421 28.1951 163.597 29.6552C162.796 31.0917 161.677 32.2103 160.241 33.0109C158.804 33.8116 157.179 34.2119 155.366 34.2119C154.024 34.2119 152.788 33.9529 151.657 33.4348C150.55 32.9167 149.608 32.1632 148.831 31.1741V40.8528H145.44V15.2784H148.69V18.2456C149.444 17.2095 150.397 16.4323 151.551 15.9143C152.705 15.3726 153.977 15.1018 155.366 15.1018ZM155.084 31.2448C156.285 31.2448 157.356 30.9739 158.298 30.4323C159.264 29.8671 160.017 29.09 160.559 28.1009C161.124 27.0883 161.407 25.9344 161.407 24.6392C161.407 23.344 161.124 22.2019 160.559 21.2128C160.017 20.2002 159.264 19.4231 158.298 18.8815C157.356 18.3398 156.285 18.069 155.084 18.069C153.906 18.069 152.835 18.3516 151.869 18.9168C150.927 19.4584 150.174 20.2238 149.608 21.2128C149.067 22.2019 148.796 23.344 148.796 24.6392C148.796 25.9344 149.067 27.0883 149.608 28.1009C150.15 29.09 150.904 29.8671 151.869 30.4323C152.835 30.9739 153.906 31.2448 155.084 31.2448ZM179.515 15.1018C181.893 15.1018 183.777 15.7965 185.167 17.1859C186.58 18.5518 187.286 20.5652 187.286 23.2263V34H183.895V23.6148C183.895 21.8015 183.459 20.4357 182.588 19.5173C181.717 18.5989 180.469 18.1397 178.844 18.1397C177.007 18.1397 175.559 18.6813 174.499 19.7645C173.439 20.8243 172.909 22.355 172.909 24.3566V34H169.518V7.78982H172.909V17.9277C173.616 17.0329 174.534 16.3382 175.665 15.8436C176.819 15.3491 178.102 15.1018 179.515 15.1018ZM198.931 34.2119C197.4 34.2119 195.929 34.0118 194.516 33.6114C193.103 33.1876 191.996 32.6577 191.195 32.0219L192.608 29.3373C193.432 29.926 194.433 30.397 195.611 30.7502C196.788 31.1035 197.977 31.2801 199.178 31.2801C202.146 31.2801 203.629 30.4323 203.629 28.7368C203.629 28.1716 203.429 27.7242 203.029 27.3945C202.628 27.0648 202.122 26.8293 201.51 26.688C200.921 26.5232 200.073 26.3465 198.966 26.1581C197.459 25.9226 196.223 25.6518 195.257 25.3457C194.315 25.0396 193.503 24.5215 192.82 23.7915C192.137 23.0614 191.796 22.037 191.796 20.7183C191.796 19.0228 192.502 17.6687 193.915 16.6561C195.328 15.6199 197.224 15.1018 199.602 15.1018C200.85 15.1018 202.098 15.2549 203.347 15.561C204.595 15.8672 205.619 16.2793 206.42 16.7974L204.971 19.482C203.441 18.4929 201.639 17.9984 199.567 17.9984C198.13 17.9984 197.035 18.2339 196.282 18.7048C195.528 19.1758 195.151 19.7999 195.151 20.577C195.151 21.1893 195.363 21.672 195.787 22.0253C196.211 22.3785 196.729 22.6375 197.342 22.8024C197.977 22.9672 198.86 23.1556 199.991 23.3676C201.498 23.6266 202.711 23.9092 203.629 24.2153C204.571 24.4979 205.372 24.9925 206.031 25.6989C206.691 26.4054 207.02 27.3945 207.02 28.6661C207.02 30.3617 206.29 31.7157 204.83 32.7283C203.394 33.7174 201.427 34.2119 198.931 34.2119Z" fill="#333333"/>
<path d="M4.70899 277.273H8.24136V298.927H21.629V302H4.70899V277.273ZM25.1879 283.278H28.579V302H25.1879V283.278ZM26.8834 279.675C26.2241 279.675 25.6707 279.463 25.2232 279.04C24.7993 278.616 24.5874 278.098 24.5874 277.485C24.5874 276.873 24.7993 276.355 25.2232 275.931C25.6707 275.484 26.2241 275.26 26.8834 275.26C27.5428 275.26 28.0844 275.472 28.5083 275.896C28.9558 276.296 29.1795 276.802 29.1795 277.415C29.1795 278.051 28.9558 278.592 28.5083 279.04C28.0844 279.463 27.5428 279.675 26.8834 279.675ZM45.0503 283.102C47.4288 283.102 49.3127 283.797 50.7021 285.186C52.115 286.552 52.8215 288.565 52.8215 291.226V302H49.4304V291.615C49.4304 289.802 48.9948 288.436 48.1235 287.517C47.2521 286.599 46.004 286.14 44.3792 286.14C42.5423 286.14 41.094 286.681 40.0343 287.765C38.9746 288.824 38.4448 290.355 38.4448 292.357V302H35.0537V283.278H38.3035V286.104C38.9864 285.139 39.9048 284.397 41.0587 283.879C42.2362 283.361 43.5667 283.102 45.0503 283.102ZM66.374 293.275L62.4883 296.878V302H59.0973V275.79H62.4883V292.604L72.6969 283.278H76.7944L68.9173 291.014L77.5716 302H73.4034L66.374 293.275ZM85.6469 302.212C84.1162 302.212 82.6444 302.012 81.2314 301.611C79.8185 301.188 78.7117 300.658 77.911 300.022L79.3239 297.337C80.1482 297.926 81.149 298.397 82.3265 298.75C83.5039 299.103 84.6932 299.28 85.8942 299.28C88.8613 299.28 90.3449 298.432 90.3449 296.737C90.3449 296.172 90.1448 295.724 89.7444 295.394C89.3441 295.065 88.8378 294.829 88.2255 294.688C87.6368 294.523 86.789 294.347 85.6822 294.158C84.1751 293.923 82.9387 293.652 81.9732 293.346C81.0313 293.04 80.2188 292.521 79.5359 291.791C78.853 291.061 78.5115 290.037 78.5115 288.718C78.5115 287.023 79.218 285.669 80.6309 284.656C82.0439 283.62 83.9396 283.102 86.318 283.102C87.5661 283.102 88.8142 283.255 90.0624 283.561C91.3105 283.867 92.3348 284.279 93.1355 284.797L91.6872 287.482C90.1565 286.493 88.355 285.998 86.2827 285.998C84.8462 285.998 83.7512 286.234 82.9976 286.705C82.244 287.176 81.8673 287.8 81.8673 288.577C81.8673 289.189 82.0792 289.672 82.5031 290.025C82.927 290.379 83.445 290.638 84.0573 290.802C84.6932 290.967 85.5762 291.156 86.7066 291.368C88.2137 291.627 89.4265 291.909 90.3449 292.215C91.2869 292.498 92.0876 292.992 92.747 293.699C93.4063 294.405 93.736 295.394 93.736 296.666C93.736 298.362 93.006 299.716 91.5459 300.728C90.1095 301.717 88.1431 302.212 85.6469 302.212Z" fill="#333333"/>
<path d="M45.2487 89L45.2252 76.9899L39.2672 86.9983H38.184L32.2261 77.0606V89H29.9653V72.5156H31.8964L38.7727 84.1018L45.5549 72.5156H47.4859L47.5094 89H45.2487ZM57.4726 89.1413C56.2323 89.1413 55.1176 88.8666 54.1286 88.3171C53.1395 87.7676 52.3624 87.014 51.7972 86.0564C51.2477 85.083 50.973 83.984 50.973 82.7595C50.973 81.5349 51.2477 80.4438 51.7972 79.4862C52.3624 78.5128 53.1395 77.7592 54.1286 77.2254C55.1176 76.676 56.2323 76.4012 57.4726 76.4012C58.7128 76.4012 59.8196 76.676 60.793 77.2254C61.7821 77.7592 62.5513 78.5128 63.1008 79.4862C63.666 80.4438 63.9486 81.5349 63.9486 82.7595C63.9486 83.984 63.666 85.083 63.1008 86.0564C62.5513 87.014 61.7821 87.7676 60.793 88.3171C59.8196 88.8666 58.7128 89.1413 57.4726 89.1413ZM57.4726 87.1632C58.2732 87.1632 58.9876 86.9826 59.6155 86.6215C60.2592 86.2448 60.7616 85.7267 61.1227 85.0673C61.4838 84.3922 61.6643 83.6229 61.6643 82.7595C61.6643 81.896 61.4838 81.1346 61.1227 80.4752C60.7616 79.8001 60.2592 79.2821 59.6155 78.921C58.9876 78.5599 58.2732 78.3793 57.4726 78.3793C56.6719 78.3793 55.9497 78.5599 55.306 78.921C54.6781 79.2821 54.1757 79.8001 53.7989 80.4752C53.4378 81.1346 53.2573 81.896 53.2573 82.7595C53.2573 83.6229 53.4378 84.3922 53.7989 85.0673C54.1757 85.7267 54.6781 86.2448 55.306 86.6215C55.9497 86.9826 56.6719 87.1632 57.4726 87.1632ZM73.7395 76.4012C75.3251 76.4012 76.5811 76.8643 77.5074 77.7906C78.4493 78.7012 78.9203 80.0435 78.9203 81.8175V89H76.6596V82.0766C76.6596 80.8677 76.3691 79.9571 75.7883 79.3449C75.2074 78.7326 74.3753 78.4264 73.2921 78.4264C72.0675 78.4264 71.102 78.7875 70.3955 79.5097C69.689 80.2162 69.3358 81.2366 69.3358 82.5711V89H67.0751V76.519H69.2416V78.4029C69.6969 77.7592 70.3092 77.2647 71.0784 76.9193C71.8634 76.5739 72.7504 76.4012 73.7395 76.4012ZM90.1218 88.27C89.7921 88.5526 89.3839 88.7724 88.8972 88.9294C88.4105 89.0706 87.9082 89.1413 87.3901 89.1413C86.1341 89.1413 85.1608 88.8038 84.47 88.1287C83.7792 87.4536 83.4338 86.4881 83.4338 85.2321V78.3793H81.3144V76.519H83.4338V73.7873H85.6945V76.519H89.274V78.3793H85.6945V85.1379C85.6945 85.813 85.8594 86.3311 86.1891 86.6922C86.5345 87.0533 87.0211 87.2338 87.6491 87.2338C88.3399 87.2338 88.9286 87.0376 89.4153 86.6451L90.1218 88.27ZM96.4344 89.1413C95.414 89.1413 94.4327 89.0078 93.4908 88.741C92.5488 88.4584 91.8109 88.1051 91.2772 87.6812L92.2191 85.8915C92.7686 86.284 93.4358 86.598 94.2208 86.8335C95.0058 87.069 95.7986 87.1867 96.5993 87.1867C98.5774 87.1867 99.5664 86.6215 99.5664 85.4912C99.5664 85.1144 99.433 84.8161 99.1661 84.5963C98.8992 84.3765 98.5617 84.2195 98.1535 84.1253C97.761 84.0154 97.1958 83.8977 96.458 83.7721C95.4532 83.6151 94.629 83.4346 93.9853 83.2305C93.3573 83.0264 92.8157 82.681 92.3604 82.1943C91.9051 81.7076 91.6775 81.0247 91.6775 80.1455C91.6775 79.0152 92.1485 78.1125 93.0904 77.4374C94.0324 76.7466 95.2962 76.4012 96.8818 76.4012C97.7139 76.4012 98.546 76.5033 99.3781 76.7074C100.21 76.9114 100.893 77.1862 101.427 77.5316L100.461 79.3213C99.4409 78.6619 98.2398 78.3322 96.8583 78.3322C95.9006 78.3322 95.1706 78.4892 94.6682 78.8032C94.1658 79.1172 93.9147 79.5332 93.9147 80.0513C93.9147 80.4595 94.056 80.7814 94.3385 81.0168C94.6211 81.2523 94.9665 81.425 95.3747 81.5349C95.7986 81.6448 96.3873 81.7704 97.1409 81.9117C98.1457 82.0844 98.9542 82.2728 99.5664 82.4769C100.194 82.6653 100.728 82.995 101.168 83.466C101.607 83.9369 101.827 84.5963 101.827 85.4441C101.827 86.5744 101.34 87.4772 100.367 88.1522C99.4095 88.8116 98.0986 89.1413 96.4344 89.1413ZM115.933 82.8301C115.933 83.0028 115.917 83.2305 115.885 83.5131H105.759C105.901 84.612 106.379 85.499 107.196 86.1741C108.028 86.8335 109.056 87.1632 110.281 87.1632C111.772 87.1632 112.973 86.6608 113.884 85.656L115.132 87.1161C114.567 87.7754 113.86 88.2778 113.012 88.6232C112.18 88.9686 111.246 89.1413 110.21 89.1413C108.891 89.1413 107.722 88.8744 106.701 88.3406C105.681 87.7911 104.888 87.0297 104.323 86.0564C103.773 85.083 103.499 83.984 103.499 82.7595C103.499 81.5506 103.765 80.4595 104.299 79.4862C104.849 78.5128 105.594 77.7592 106.536 77.2254C107.494 76.676 108.57 76.4012 109.763 76.4012C110.956 76.4012 112.016 76.676 112.942 77.2254C113.884 77.7592 114.614 78.5128 115.132 79.4862C115.666 80.4595 115.933 81.5742 115.933 82.8301ZM109.763 78.3087C108.679 78.3087 107.769 78.6384 107.031 79.2978C106.309 79.9571 105.885 80.8206 105.759 81.8882H113.766C113.64 80.8363 113.209 79.9807 112.471 79.3213C111.749 78.6462 110.846 78.3087 109.763 78.3087ZM121.238 78.6148C121.631 77.8927 122.212 77.3432 122.981 76.9664C123.75 76.5896 124.684 76.4012 125.783 76.4012V78.5913C125.658 78.5756 125.485 78.5677 125.265 78.5677C124.041 78.5677 123.075 78.9367 122.369 79.6745C121.678 80.3967 121.332 81.4329 121.332 82.783V89H119.072V76.519H121.238V78.6148ZM130.736 78.6148C131.129 77.8927 131.709 77.3432 132.479 76.9664C133.248 76.5896 134.182 76.4012 135.281 76.4012V78.5913C135.155 78.5756 134.983 78.5677 134.763 78.5677C133.538 78.5677 132.573 78.9367 131.866 79.6745C131.176 80.3967 130.83 81.4329 130.83 82.783V89H128.57V76.519H130.736V78.6148ZM142.589 76.4012C144.316 76.4012 145.635 76.8251 146.546 77.6729C147.472 78.5206 147.935 79.7844 147.935 81.4643V89H145.792V87.3516C145.415 87.9324 144.874 88.3799 144.167 88.6939C143.476 88.9922 142.652 89.1413 141.695 89.1413C140.297 89.1413 139.175 88.8038 138.327 88.1287C137.495 87.4536 137.079 86.5666 137.079 85.4676C137.079 84.3687 137.479 83.4895 138.28 82.8301C139.081 82.1551 140.352 81.8175 142.095 81.8175H145.674V81.3701C145.674 80.3967 145.392 79.651 144.827 79.1329C144.261 78.6148 143.429 78.3558 142.33 78.3558C141.593 78.3558 140.87 78.4814 140.164 78.7326C139.457 78.9681 138.861 79.2899 138.374 79.6981L137.432 78.0026C138.076 77.4845 138.845 77.092 139.74 76.8251C140.635 76.5425 141.585 76.4012 142.589 76.4012ZM142.071 87.3987C142.935 87.3987 143.681 87.2103 144.309 86.8335C144.936 86.441 145.392 85.8915 145.674 85.185V83.4424H142.189C140.274 83.4424 139.316 84.0861 139.316 85.3734C139.316 86.0014 139.559 86.4959 140.046 86.857C140.533 87.2181 141.208 87.3987 142.071 87.3987ZM159.136 88.27C158.807 88.5526 158.398 88.7724 157.912 88.9294C157.425 89.0706 156.923 89.1413 156.405 89.1413C155.149 89.1413 154.175 88.8038 153.485 88.1287C152.794 87.4536 152.448 86.4881 152.448 85.2321V78.3793H150.329V76.519H152.448V73.7873H154.709V76.519H158.289V78.3793H154.709V85.1379C154.709 85.813 154.874 86.3311 155.204 86.6922C155.549 87.0533 156.036 87.2338 156.664 87.2338C157.354 87.2338 157.943 87.0376 158.43 86.6451L159.136 88.27Z" fill="#333333"/>
<path d="M11.92 80.6241C11.8724 80.5013 11.801 80.3892 11.71 80.2941L6.71 75.2941C6.61676 75.2009 6.50607 75.1269 6.38425 75.0764C6.26243 75.026 6.13186 75 6 75C5.7337 75 5.4783 75.1058 5.29 75.2941C5.19676 75.3873 5.1228 75.498 5.07234 75.6198C5.02188 75.7417 4.99591 75.8722 4.99591 76.0041C4.99591 76.2704 5.1017 76.5258 5.29 76.7141L8.59 80.0041H1C0.734784 80.0041 0.48043 80.1094 0.292893 80.297C0.105357 80.4845 0 80.7389 0 81.0041C0 81.2693 0.105357 81.5237 0.292893 81.7112C0.48043 81.8987 0.734784 82.0041 1 82.0041H8.59L5.29 85.2941C5.19627 85.3871 5.12188 85.4977 5.07111 85.6195C5.02034 85.7414 4.9942 85.8721 4.9942 86.0041C4.9942 86.1361 5.02034 86.2668 5.07111 86.3887C5.12188 86.5105 5.19627 86.6211 5.29 86.7141C5.38296 86.8078 5.49356 86.8822 5.61542 86.933C5.73728 86.9838 5.86799 87.0099 6 87.0099C6.13201 87.0099 6.26272 86.9838 6.38458 86.933C6.50644 86.8822 6.61704 86.8078 6.71 86.7141L11.71 81.7141C11.801 81.619 11.8724 81.5068 11.92 81.3841C12.02 81.1406 12.02 80.8676 11.92 80.6241Z" fill="#19AFF0"/>
<path d="M45.2487 365L45.2252 352.99L39.2672 362.998H38.184L32.2261 353.061V365H29.9653V348.516H31.8964L38.7727 360.102L45.5549 348.516H47.4859L47.5094 365H45.2487ZM57.4726 365.141C56.2323 365.141 55.1176 364.867 54.1286 364.317C53.1395 363.768 52.3624 363.014 51.7972 362.056C51.2477 361.083 50.973 359.984 50.973 358.759C50.973 357.535 51.2477 356.444 51.7972 355.486C52.3624 354.513 53.1395 353.759 54.1286 353.225C55.1176 352.676 56.2323 352.401 57.4726 352.401C58.7128 352.401 59.8196 352.676 60.793 353.225C61.7821 353.759 62.5513 354.513 63.1008 355.486C63.666 356.444 63.9486 357.535 63.9486 358.759C63.9486 359.984 63.666 361.083 63.1008 362.056C62.5513 363.014 61.7821 363.768 60.793 364.317C59.8196 364.867 58.7128 365.141 57.4726 365.141ZM57.4726 363.163C58.2732 363.163 58.9876 362.983 59.6155 362.622C60.2592 362.245 60.7616 361.727 61.1227 361.067C61.4838 360.392 61.6643 359.623 61.6643 358.759C61.6643 357.896 61.4838 357.135 61.1227 356.475C60.7616 355.8 60.2592 355.282 59.6155 354.921C58.9876 354.56 58.2732 354.379 57.4726 354.379C56.6719 354.379 55.9497 354.56 55.306 354.921C54.6781 355.282 54.1757 355.8 53.7989 356.475C53.4378 357.135 53.2573 357.896 53.2573 358.759C53.2573 359.623 53.4378 360.392 53.7989 361.067C54.1757 361.727 54.6781 362.245 55.306 362.622C55.9497 362.983 56.6719 363.163 57.4726 363.163ZM73.7395 352.401C75.3251 352.401 76.5811 352.864 77.5074 353.791C78.4493 354.701 78.9203 356.043 78.9203 357.818V365H76.6596V358.077C76.6596 356.868 76.3691 355.957 75.7883 355.345C75.2074 354.733 74.3753 354.426 73.2921 354.426C72.0675 354.426 71.102 354.788 70.3955 355.51C69.689 356.216 69.3358 357.237 69.3358 358.571V365H67.0751V352.519H69.2416V354.403C69.6969 353.759 70.3092 353.265 71.0784 352.919C71.8634 352.574 72.7504 352.401 73.7395 352.401ZM90.1218 364.27C89.7921 364.553 89.3839 364.772 88.8972 364.929C88.4105 365.071 87.9082 365.141 87.3901 365.141C86.1341 365.141 85.1608 364.804 84.47 364.129C83.7792 363.454 83.4338 362.488 83.4338 361.232V354.379H81.3144V352.519H83.4338V349.787H85.6945V352.519H89.274V354.379H85.6945V361.138C85.6945 361.813 85.8594 362.331 86.1891 362.692C86.5345 363.053 87.0211 363.234 87.6491 363.234C88.3399 363.234 88.9286 363.038 89.4153 362.645L90.1218 364.27ZM96.4344 365.141C95.414 365.141 94.4327 365.008 93.4908 364.741C92.5488 364.458 91.8109 364.105 91.2772 363.681L92.2191 361.892C92.7686 362.284 93.4358 362.598 94.2208 362.833C95.0058 363.069 95.7986 363.187 96.5993 363.187C98.5774 363.187 99.5664 362.622 99.5664 361.491C99.5664 361.114 99.433 360.816 99.1661 360.596C98.8992 360.377 98.5617 360.22 98.1535 360.125C97.761 360.015 97.1958 359.898 96.458 359.772C95.4532 359.615 94.629 359.435 93.9853 359.23C93.3573 359.026 92.8157 358.681 92.3604 358.194C91.9051 357.708 91.6775 357.025 91.6775 356.146C91.6775 355.015 92.1485 354.112 93.0904 353.437C94.0324 352.747 95.2962 352.401 96.8818 352.401C97.7139 352.401 98.546 352.503 99.3781 352.707C100.21 352.911 100.893 353.186 101.427 353.532L100.461 355.321C99.4409 354.662 98.2398 354.332 96.8583 354.332C95.9006 354.332 95.1706 354.489 94.6682 354.803C94.1658 355.117 93.9147 355.533 93.9147 356.051C93.9147 356.46 94.056 356.781 94.3385 357.017C94.6211 357.252 94.9665 357.425 95.3747 357.535C95.7986 357.645 96.3873 357.77 97.1409 357.912C98.1457 358.084 98.9542 358.273 99.5664 358.477C100.194 358.665 100.728 358.995 101.168 359.466C101.607 359.937 101.827 360.596 101.827 361.444C101.827 362.574 101.34 363.477 100.367 364.152C99.4095 364.812 98.0986 365.141 96.4344 365.141ZM115.933 358.83C115.933 359.003 115.917 359.23 115.885 359.513H105.759C105.901 360.612 106.379 361.499 107.196 362.174C108.028 362.833 109.056 363.163 110.281 363.163C111.772 363.163 112.973 362.661 113.884 361.656L115.132 363.116C114.567 363.775 113.86 364.278 113.012 364.623C112.18 364.969 111.246 365.141 110.21 365.141C108.891 365.141 107.722 364.874 106.701 364.341C105.681 363.791 104.888 363.03 104.323 362.056C103.773 361.083 103.499 359.984 103.499 358.759C103.499 357.551 103.765 356.46 104.299 355.486C104.849 354.513 105.594 353.759 106.536 353.225C107.494 352.676 108.57 352.401 109.763 352.401C110.956 352.401 112.016 352.676 112.942 353.225C113.884 353.759 114.614 354.513 115.132 355.486C115.666 356.46 115.933 357.574 115.933 358.83ZM109.763 354.309C108.679 354.309 107.769 354.638 107.031 355.298C106.309 355.957 105.885 356.821 105.759 357.888H113.766C113.64 356.836 113.209 355.981 112.471 355.321C111.749 354.646 110.846 354.309 109.763 354.309ZM121.238 354.615C121.631 353.893 122.212 353.343 122.981 352.966C123.75 352.59 124.684 352.401 125.783 352.401V354.591C125.658 354.576 125.485 354.568 125.265 354.568C124.041 354.568 123.075 354.937 122.369 355.675C121.678 356.397 121.332 357.433 121.332 358.783V365H119.072V352.519H121.238V354.615ZM130.736 354.615C131.129 353.893 131.709 353.343 132.479 352.966C133.248 352.59 134.182 352.401 135.281 352.401V354.591C135.155 354.576 134.983 354.568 134.763 354.568C133.538 354.568 132.573 354.937 131.866 355.675C131.176 356.397 130.83 357.433 130.83 358.783V365H128.57V352.519H130.736V354.615ZM142.589 352.401C144.316 352.401 145.635 352.825 146.546 353.673C147.472 354.521 147.935 355.784 147.935 357.464V365H145.792V363.352C145.415 363.932 144.874 364.38 144.167 364.694C143.476 364.992 142.652 365.141 141.695 365.141C140.297 365.141 139.175 364.804 138.327 364.129C137.495 363.454 137.079 362.567 137.079 361.468C137.079 360.369 137.479 359.49 138.28 358.83C139.081 358.155 140.352 357.818 142.095 357.818H145.674V357.37C145.674 356.397 145.392 355.651 144.827 355.133C144.261 354.615 143.429 354.356 142.33 354.356C141.593 354.356 140.87 354.481 140.164 354.733C139.457 354.968 138.861 355.29 138.374 355.698L137.432 354.003C138.076 353.484 138.845 353.092 139.74 352.825C140.635 352.543 141.585 352.401 142.589 352.401ZM142.071 363.399C142.935 363.399 143.681 363.21 144.309 362.833C144.936 362.441 145.392 361.892 145.674 361.185V359.442H142.189C140.274 359.442 139.316 360.086 139.316 361.373C139.316 362.001 139.559 362.496 140.046 362.857C140.533 363.218 141.208 363.399 142.071 363.399ZM159.136 364.27C158.807 364.553 158.398 364.772 157.912 364.929C157.425 365.071 156.923 365.141 156.405 365.141C155.149 365.141 154.175 364.804 153.485 364.129C152.794 363.454 152.448 362.488 152.448 361.232V354.379H150.329V352.519H152.448V349.787H154.709V352.519H158.289V354.379H154.709V361.138C154.709 361.813 154.874 362.331 155.204 362.692C155.549 363.053 156.036 363.234 156.664 363.234C157.354 363.234 157.943 363.038 158.43 362.645L159.136 364.27Z" fill="#333333"/>
<path d="M11.92 356.624C11.8724 356.501 11.801 356.389 11.71 356.294L6.71 351.294C6.61676 351.201 6.50607 351.127 6.38425 351.076C6.26243 351.026 6.13186 351 6 351C5.7337 351 5.4783 351.106 5.29 351.294C5.19676 351.387 5.1228 351.498 5.07234 351.62C5.02188 351.742 4.99591 351.872 4.99591 352.004C4.99591 352.27 5.1017 352.526 5.29 352.714L8.59 356.004H1C0.734784 356.004 0.48043 356.109 0.292893 356.297C0.105357 356.485 0 356.739 0 357.004C0 357.269 0.105357 357.524 0.292893 357.711C0.48043 357.899 0.734784 358.004 1 358.004H8.59L5.29 361.294C5.19627 361.387 5.12188 361.498 5.07111 361.62C5.02034 361.741 4.9942 361.872 4.9942 362.004C4.9942 362.136 5.02034 362.267 5.07111 362.389C5.12188 362.511 5.19627 362.621 5.29 362.714C5.38296 362.808 5.49356 362.882 5.61542 362.933C5.73728 362.984 5.86799 363.01 6 363.01C6.13201 363.01 6.26272 362.984 6.38458 362.933C6.50644 362.882 6.61704 362.808 6.71 362.714L11.71 357.714C11.801 357.619 11.8724 357.507 11.92 357.384C12.02 357.141 12.02 356.868 11.92 356.624Z" fill="#19AFF0"/>
<path d="M45.2487 129L45.2252 116.99L39.2672 126.998H38.184L32.2261 117.061V129H29.9653V112.516H31.8964L38.7727 124.102L45.5549 112.516H47.4859L47.5094 129H45.2487ZM63.4069 122.83C63.4069 123.003 63.3912 123.23 63.3598 123.513H53.2337C53.375 124.612 53.8538 125.499 54.6702 126.174C55.5023 126.833 56.5306 127.163 57.7551 127.163C59.2466 127.163 60.4476 126.661 61.3582 125.656L62.6063 127.116C62.0411 127.775 61.3346 128.278 60.4868 128.623C59.6548 128.969 58.7207 129.141 57.6845 129.141C56.3658 129.141 55.1961 128.874 54.1757 128.341C53.1552 127.791 52.3624 127.03 51.7972 126.056C51.2477 125.083 50.973 123.984 50.973 122.759C50.973 121.551 51.2399 120.46 51.7737 119.486C52.3232 118.513 53.0689 117.759 54.0108 117.225C54.9685 116.676 56.0439 116.401 57.2371 116.401C58.4302 116.401 59.4899 116.676 60.4162 117.225C61.3582 117.759 62.0882 118.513 62.6063 119.486C63.1401 120.46 63.4069 121.574 63.4069 122.83ZM57.2371 118.309C56.1538 118.309 55.2432 118.638 54.5054 119.298C53.7832 119.957 53.3593 120.821 53.2337 121.888H61.2404C61.1148 120.836 60.6831 119.981 59.9452 119.321C59.223 118.646 58.3203 118.309 57.2371 118.309ZM78.3207 111.527V129H76.1542V127.022C75.6518 127.713 75.016 128.239 74.2467 128.6C73.4774 128.961 72.6297 129.141 71.7034 129.141C70.4946 129.141 69.4113 128.874 68.4536 128.341C67.496 127.807 66.7424 127.061 66.1929 126.103C65.6591 125.13 65.3922 124.015 65.3922 122.759C65.3922 121.504 65.6591 120.397 66.1929 119.439C66.7424 118.481 67.496 117.736 68.4536 117.202C69.4113 116.668 70.4946 116.401 71.7034 116.401C72.5983 116.401 73.4225 116.574 74.1761 116.919C74.9296 117.249 75.5576 117.744 76.06 118.403V111.527H78.3207ZM71.8918 127.163C72.6768 127.163 73.3911 126.983 74.0348 126.622C74.6785 126.245 75.1808 125.727 75.5419 125.067C75.903 124.392 76.0835 123.623 76.0835 122.759C76.0835 121.896 75.903 121.135 75.5419 120.475C75.1808 119.8 74.6785 119.282 74.0348 118.921C73.3911 118.56 72.6768 118.379 71.8918 118.379C71.0911 118.379 70.369 118.56 69.7253 118.921C69.0973 119.282 68.5949 119.8 68.2181 120.475C67.8571 121.135 67.6765 121.896 67.6765 122.759C67.6765 123.623 67.8571 124.392 68.2181 125.067C68.5949 125.727 69.0973 126.245 69.7253 126.622C70.369 126.983 71.0911 127.163 71.8918 127.163ZM82.5982 116.519H84.8589V129H82.5982V116.519ZM83.7286 114.117C83.289 114.117 82.92 113.976 82.6217 113.693C82.3392 113.41 82.1979 113.065 82.1979 112.657C82.1979 112.249 82.3392 111.903 82.6217 111.621C82.92 111.322 83.289 111.173 83.7286 111.173C84.1681 111.173 84.5292 111.315 84.8118 111.597C85.1101 111.864 85.2592 112.202 85.2592 112.61C85.2592 113.034 85.1101 113.395 84.8118 113.693C84.5292 113.976 84.1681 114.117 83.7286 114.117ZM100.809 116.519V129H98.6657V127.116C98.2104 127.76 97.606 128.262 96.8524 128.623C96.1145 128.969 95.306 129.141 94.4269 129.141C92.7627 129.141 91.4518 128.686 90.4941 127.775C89.5365 126.849 89.0577 125.491 89.0577 123.701V116.519H91.3184V123.442C91.3184 124.651 91.6088 125.57 92.1897 126.198C92.7706 126.81 93.6026 127.116 94.6859 127.116C95.879 127.116 96.821 126.755 97.5118 126.033C98.2026 125.311 98.548 124.29 98.548 122.971V116.519H100.809ZM120.726 116.401C122.295 116.401 123.536 116.856 124.446 117.767C125.373 118.678 125.836 120.028 125.836 121.818V129H123.575V122.077C123.575 120.868 123.292 119.957 122.727 119.345C122.178 118.733 121.385 118.426 120.349 118.426C119.203 118.426 118.292 118.788 117.617 119.51C116.942 120.216 116.604 121.237 116.604 122.571V129H114.344V122.077C114.344 120.868 114.061 119.957 113.496 119.345C112.946 118.733 112.154 118.426 111.117 118.426C109.971 118.426 109.061 118.788 108.386 119.51C107.711 120.216 107.373 121.237 107.373 122.571V129H105.112V116.519H107.279V118.379C107.734 117.736 108.331 117.249 109.069 116.919C109.807 116.574 110.646 116.401 111.588 116.401C112.562 116.401 113.425 116.597 114.179 116.99C114.932 117.382 115.513 117.955 115.922 118.709C116.392 117.987 117.044 117.422 117.876 117.013C118.724 116.605 119.674 116.401 120.726 116.401Z" fill="#333333"/>
<path d="M11.92 119.624C11.8724 119.501 11.801 119.389 11.71 119.294L6.71 114.294C6.61676 114.201 6.50607 114.127 6.38425 114.076C6.26243 114.026 6.13186 114 6 114C5.7337 114 5.4783 114.106 5.29 114.294C5.19676 114.387 5.1228 114.498 5.07234 114.62C5.02188 114.742 4.99591 114.872 4.99591 115.004C4.99591 115.27 5.1017 115.526 5.29 115.714L8.59 119.004H1C0.734784 119.004 0.48043 119.109 0.292893 119.297C0.105357 119.485 0 119.739 0 120.004C0 120.269 0.105357 120.524 0.292893 120.711C0.48043 120.899 0.734784 121.004 1 121.004H8.59L5.29 124.294C5.19627 124.387 5.12188 124.498 5.07111 124.62C5.02034 124.741 4.9942 124.872 4.9942 125.004C4.9942 125.136 5.02034 125.267 5.07111 125.389C5.12188 125.511 5.19627 125.621 5.29 125.714C5.38296 125.808 5.49356 125.882 5.61542 125.933C5.73728 125.984 5.86799 126.01 6 126.01C6.13201 126.01 6.26272 125.984 6.38458 125.933C6.50644 125.882 6.61704 125.808 6.71 125.714L11.71 120.714C11.801 120.619 11.8724 120.507 11.92 120.384C12.02 120.141 12.02 119.868 11.92 119.624Z" fill="#19AFF0"/>
<path d="M34.7694 405.188C33.5291 405.188 32.3281 405 31.1663 404.623C30.0203 404.231 29.1176 403.728 28.4582 403.116L29.3295 401.279C29.9575 401.844 30.7582 402.308 31.7315 402.669C32.7206 403.014 33.7332 403.187 34.7694 403.187C36.1352 403.187 37.1557 402.959 37.8307 402.504C38.5058 402.033 38.8434 401.413 38.8434 400.643C38.8434 400.078 38.655 399.623 38.2782 399.278C37.9171 398.916 37.4618 398.642 36.9123 398.453C36.3785 398.265 35.6171 398.053 34.6281 397.818C33.3878 397.519 32.383 397.221 31.6138 396.923C30.8602 396.624 30.2087 396.169 29.6592 395.557C29.1254 394.929 28.8585 394.089 28.8585 393.037C28.8585 392.158 29.0862 391.365 29.5415 390.659C30.0124 389.952 30.7189 389.387 31.6609 388.963C32.6028 388.539 33.7724 388.327 35.1697 388.327C36.1431 388.327 37.1007 388.453 38.0427 388.704C38.9847 388.955 39.7932 389.316 40.4682 389.787L39.6911 391.671C39.0004 391.232 38.2625 390.902 37.4775 390.682C36.6925 390.447 35.9233 390.329 35.1697 390.329C33.8352 390.329 32.8305 390.572 32.1554 391.059C31.496 391.546 31.1663 392.174 31.1663 392.943C31.1663 393.508 31.3547 393.971 31.7315 394.332C32.1083 394.678 32.5714 394.952 33.1209 395.156C33.6861 395.345 34.4475 395.549 35.4052 395.769C36.6454 396.067 37.6424 396.365 38.3959 396.664C39.1495 396.962 39.7932 397.417 40.327 398.029C40.8764 398.642 41.1512 399.466 41.1512 400.502C41.1512 401.366 40.9157 402.158 40.4447 402.881C39.9737 403.587 39.2594 404.152 38.3017 404.576C37.3441 404.984 36.1666 405.188 34.7694 405.188ZM55.5419 398.83C55.5419 399.003 55.5262 399.23 55.4948 399.513H45.3687C45.51 400.612 45.9888 401.499 46.8052 402.174C47.6372 402.833 48.6656 403.163 49.8901 403.163C51.3816 403.163 52.5826 402.661 53.4931 401.656L54.7412 403.116C54.176 403.775 53.4696 404.278 52.6218 404.623C51.7897 404.969 50.8556 405.141 49.8195 405.141C48.5007 405.141 47.3311 404.874 46.3106 404.341C45.2902 403.791 44.4974 403.03 43.9322 402.056C43.3827 401.083 43.108 399.984 43.108 398.759C43.108 397.551 43.3748 396.46 43.9086 395.486C44.4581 394.513 45.2038 393.759 46.1458 393.225C47.1035 392.676 48.1789 392.401 49.372 392.401C50.5652 392.401 51.6249 392.676 52.5512 393.225C53.4931 393.759 54.2231 394.513 54.7412 395.486C55.275 396.46 55.5419 397.574 55.5419 398.83ZM49.372 394.309C48.2888 394.309 47.3782 394.638 46.6403 395.298C45.9182 395.957 45.4943 396.821 45.3687 397.888H53.3754C53.2498 396.836 52.8181 395.981 52.0802 395.321C51.358 394.646 50.4553 394.309 49.372 394.309ZM74.2942 392.401C75.8641 392.401 77.1044 392.856 78.0149 393.767C78.9412 394.678 79.4043 396.028 79.4043 397.818V405H77.1436V398.077C77.1436 396.868 76.861 395.957 76.2959 395.345C75.7464 394.733 74.9536 394.426 73.9174 394.426C72.7713 394.426 71.8608 394.788 71.1857 395.51C70.5106 396.216 70.1731 397.237 70.1731 398.571V405H67.9124V398.077C67.9124 396.868 67.6298 395.957 67.0646 395.345C66.5151 394.733 65.7223 394.426 64.6861 394.426C63.5401 394.426 62.6295 394.788 61.9544 395.51C61.2794 396.216 60.9418 397.237 60.9418 398.571V405H58.6811V392.519H60.8476V394.379C61.3029 393.736 61.8995 393.249 62.6374 392.919C63.3752 392.574 64.2152 392.401 65.1571 392.401C66.1305 392.401 66.994 392.597 67.7475 392.99C68.5011 393.382 69.082 393.955 69.4902 394.709C69.9611 393.987 70.6127 393.422 71.4447 393.013C72.2925 392.605 73.2423 392.401 74.2942 392.401ZM83.5641 392.519H85.8248V405H83.5641V392.519ZM84.6944 390.117C84.2549 390.117 83.8859 389.976 83.5876 389.693C83.305 389.41 83.1637 389.065 83.1637 388.657C83.1637 388.249 83.305 387.903 83.5876 387.621C83.8859 387.322 84.2549 387.173 84.6944 387.173C85.134 387.173 85.4951 387.315 85.7777 387.597C86.076 387.864 86.2251 388.202 86.2251 388.61C86.2251 389.034 86.076 389.395 85.7777 389.693C85.4951 389.976 85.134 390.117 84.6944 390.117ZM89.3406 397.558H95.6753V399.513H89.3406V397.558ZM105.773 392.401C106.982 392.401 108.066 392.668 109.023 393.202C109.981 393.736 110.727 394.481 111.26 395.439C111.81 396.397 112.085 397.504 112.085 398.759C112.085 400.015 111.81 401.13 111.26 402.103C110.727 403.061 109.981 403.807 109.023 404.341C108.066 404.874 106.982 405.141 105.773 405.141C104.847 405.141 103.999 404.961 103.23 404.6C102.461 404.239 101.825 403.713 101.323 403.022V405H99.1562V387.527H101.417V394.403C101.919 393.744 102.547 393.249 103.301 392.919C104.054 392.574 104.879 392.401 105.773 392.401ZM105.585 403.163C106.386 403.163 107.1 402.983 107.728 402.622C108.372 402.245 108.874 401.727 109.235 401.067C109.612 400.392 109.8 399.623 109.8 398.759C109.8 397.896 109.612 397.135 109.235 396.475C108.874 395.8 108.372 395.282 107.728 394.921C107.1 394.56 106.386 394.379 105.585 394.379C104.8 394.379 104.086 394.56 103.442 394.921C102.798 395.282 102.296 395.8 101.935 396.475C101.574 397.135 101.393 397.896 101.393 398.759C101.393 399.623 101.574 400.392 101.935 401.067C102.296 401.727 102.798 402.245 103.442 402.622C104.086 402.983 104.8 403.163 105.585 403.163ZM120.554 405.141C119.314 405.141 118.199 404.867 117.21 404.317C116.221 403.768 115.444 403.014 114.879 402.056C114.329 401.083 114.054 399.984 114.054 398.759C114.054 397.535 114.329 396.444 114.879 395.486C115.444 394.513 116.221 393.759 117.21 393.225C118.199 392.676 119.314 392.401 120.554 392.401C121.794 392.401 122.901 392.676 123.874 393.225C124.863 393.759 125.633 394.513 126.182 395.486C126.747 396.444 127.03 397.535 127.03 398.759C127.03 399.984 126.747 401.083 126.182 402.056C125.633 403.014 124.863 403.768 123.874 404.317C122.901 404.867 121.794 405.141 120.554 405.141ZM120.554 403.163C121.355 403.163 122.069 402.983 122.697 402.622C123.341 402.245 123.843 401.727 124.204 401.067C124.565 400.392 124.746 399.623 124.746 398.759C124.746 397.896 124.565 397.135 124.204 396.475C123.843 395.8 123.341 395.282 122.697 394.921C122.069 394.56 121.355 394.379 120.554 394.379C119.753 394.379 119.031 394.56 118.387 394.921C117.759 395.282 117.257 395.8 116.88 396.475C116.519 397.135 116.339 397.896 116.339 398.759C116.339 399.623 116.519 400.392 116.88 401.067C117.257 401.727 117.759 402.245 118.387 402.622C119.031 402.983 119.753 403.163 120.554 403.163ZM130.156 387.527H132.417V405H130.156V387.527ZM148.508 387.527V405H146.342V403.022C145.839 403.713 145.203 404.239 144.434 404.6C143.665 404.961 142.817 405.141 141.891 405.141C140.682 405.141 139.599 404.874 138.641 404.341C137.683 403.807 136.93 403.061 136.38 402.103C135.847 401.13 135.58 400.015 135.58 398.759C135.58 397.504 135.847 396.397 136.38 395.439C136.93 394.481 137.683 393.736 138.641 393.202C139.599 392.668 140.682 392.401 141.891 392.401C142.786 392.401 143.61 392.574 144.364 392.919C145.117 393.249 145.745 393.744 146.247 394.403V387.527H148.508ZM142.079 403.163C142.864 403.163 143.579 402.983 144.222 402.622C144.866 402.245 145.368 401.727 145.729 401.067C146.09 400.392 146.271 399.623 146.271 398.759C146.271 397.896 146.09 397.135 145.729 396.475C145.368 395.8 144.866 395.282 144.222 394.921C143.579 394.56 142.864 394.379 142.079 394.379C141.279 394.379 140.556 394.56 139.913 394.921C139.285 395.282 138.782 395.8 138.406 396.475C138.045 397.135 137.864 397.896 137.864 398.759C137.864 399.623 138.045 400.392 138.406 401.067C138.782 401.727 139.285 402.245 139.913 402.622C140.556 402.983 141.279 403.163 142.079 403.163Z" fill="#333333"/>
<path d="M11.92 395.624C11.8724 395.501 11.801 395.389 11.71 395.294L6.71 390.294C6.61676 390.201 6.50607 390.127 6.38425 390.076C6.26243 390.026 6.13186 390 6 390C5.7337 390 5.4783 390.106 5.29 390.294C5.19676 390.387 5.1228 390.498 5.07234 390.62C5.02188 390.742 4.99591 390.872 4.99591 391.004C4.99591 391.27 5.1017 391.526 5.29 391.714L8.59 395.004H1C0.734784 395.004 0.48043 395.109 0.292893 395.297C0.105357 395.485 0 395.739 0 396.004C0 396.269 0.105357 396.524 0.292893 396.711C0.48043 396.899 0.734784 397.004 1 397.004H8.59L5.29 400.294C5.19627 400.387 5.12188 400.498 5.07111 400.62C5.02034 400.741 4.9942 400.872 4.9942 401.004C4.9942 401.136 5.02034 401.267 5.07111 401.389C5.12188 401.511 5.19627 401.621 5.29 401.714C5.38296 401.808 5.49356 401.882 5.61542 401.933C5.73728 401.984 5.86799 402.01 6 402.01C6.13201 402.01 6.26272 401.984 6.38458 401.933C6.50644 401.882 6.61704 401.808 6.71 401.714L11.71 396.714C11.801 396.619 11.8724 396.507 11.92 396.384C12.02 396.141 12.02 395.868 11.92 395.624Z" fill="#19AFF0"/>
<path d="M33.7332 428.516V445H31.4018V430.564H27.6811V428.516H33.7332ZM44.4508 434.992C45.5341 434.992 46.4996 435.196 47.3474 435.604C48.2108 436.012 48.8859 436.601 49.3726 437.37C49.8593 438.124 50.1026 438.995 50.1026 439.984C50.1026 441.02 49.8436 441.931 49.3255 442.716C48.8231 443.501 48.1245 444.113 47.2296 444.553C46.3504 444.976 45.3614 445.188 44.2624 445.188C42.0488 445.188 40.3376 444.474 39.1287 443.045C37.9356 441.617 37.339 439.592 37.339 436.97C37.339 435.133 37.6608 433.571 38.3045 432.283C38.9639 430.98 39.8744 429.999 41.0362 429.34C42.2136 428.665 43.5795 428.327 45.1337 428.327C45.9344 428.327 46.688 428.414 47.3945 428.586C48.1009 428.743 48.7132 428.979 49.2313 429.293L48.3364 431.13C47.5514 430.611 46.4996 430.352 45.1808 430.352C43.4696 430.352 42.1273 430.886 41.1539 431.954C40.1806 433.006 39.6939 434.544 39.6939 436.569C39.6939 436.821 39.7017 437.017 39.7174 437.158C40.1884 436.452 40.8321 435.918 41.6485 435.557C42.4805 435.18 43.4146 434.992 44.4508 434.992ZM44.1682 443.281C45.2515 443.281 46.1306 442.99 46.8057 442.41C47.4808 441.829 47.8183 441.052 47.8183 440.078C47.8183 439.105 47.4729 438.336 46.7822 437.77C46.1071 437.19 45.1965 436.899 44.0505 436.899C43.3126 436.899 42.6532 437.04 42.0723 437.323C41.5072 437.606 41.0597 437.99 40.73 438.477C40.4161 438.964 40.2591 439.505 40.2591 440.102C40.2591 440.683 40.4082 441.216 40.7065 441.703C41.0205 442.174 41.4679 442.559 42.0488 442.857C42.6454 443.14 43.3519 443.281 44.1682 443.281ZM59.5031 432.401C60.712 432.401 61.7952 432.668 62.7529 433.202C63.7106 433.736 64.4563 434.481 64.9901 435.439C65.5395 436.397 65.8143 437.504 65.8143 438.759C65.8143 440.015 65.5395 441.13 64.9901 442.103C64.4563 443.061 63.7106 443.807 62.7529 444.341C61.7952 444.874 60.712 445.141 59.5031 445.141C58.6083 445.141 57.784 444.969 57.0305 444.623C56.2926 444.278 55.6646 443.775 55.1465 443.116V449.569H52.8858V432.519H55.0523V434.497C55.5547 433.806 56.1905 433.288 56.9598 432.943C57.7291 432.582 58.5769 432.401 59.5031 432.401ZM59.3147 443.163C60.1154 443.163 60.8297 442.983 61.4577 442.622C62.1014 442.245 62.6038 441.727 62.9648 441.067C63.3416 440.392 63.53 439.623 63.53 438.759C63.53 437.896 63.3416 437.135 62.9648 436.475C62.6038 435.8 62.1014 435.282 61.4577 434.921C60.8297 434.56 60.1154 434.379 59.3147 434.379C58.5298 434.379 57.8154 434.568 57.1718 434.945C56.5438 435.306 56.0414 435.816 55.6646 436.475C55.3035 437.135 55.123 437.896 55.123 438.759C55.123 439.623 55.3035 440.392 55.6646 441.067C56.0257 441.727 56.5281 442.245 57.1718 442.622C57.8154 442.983 58.5298 443.163 59.3147 443.163ZM76.4835 445L72.8805 440.22L69.2304 445H66.7106L71.6324 438.618L66.9461 432.519H69.4659L72.904 437.017L76.3187 432.519H78.7913L74.0815 438.618L79.0504 445H76.4835Z" fill="#333333"/>
<path d="M11.92 435.624C11.8724 435.501 11.801 435.389 11.71 435.294L6.71 430.294C6.61676 430.201 6.50607 430.127 6.38425 430.076C6.26243 430.026 6.13186 430 6 430C5.7337 430 5.4783 430.106 5.29 430.294C5.19676 430.387 5.1228 430.498 5.07234 430.62C5.02188 430.742 4.99591 430.872 4.99591 431.004C4.99591 431.27 5.1017 431.526 5.29 431.714L8.59 435.004H1C0.734784 435.004 0.48043 435.109 0.292893 435.297C0.105357 435.485 0 435.739 0 436.004C0 436.269 0.105357 436.524 0.292893 436.711C0.48043 436.899 0.734784 437.004 1 437.004H8.59L5.29 440.294C5.19627 440.387 5.12188 440.498 5.07111 440.62C5.02034 440.741 4.9942 440.872 4.9942 441.004C4.9942 441.136 5.02034 441.267 5.07111 441.389C5.12188 441.511 5.19627 441.621 5.29 441.714C5.38296 441.808 5.49356 441.882 5.61542 441.933C5.73728 441.984 5.86799 442.01 6 442.01C6.13201 442.01 6.26272 441.984 6.38458 441.933C6.50644 441.882 6.61704 441.808 6.71 441.714L11.71 436.714C11.801 436.619 11.8724 436.507 11.92 436.384C12.02 436.141 12.02 435.868 11.92 435.624Z" fill="#19AFF0"/>
<path d="M39.9502 474.474L39.385 479.042H42.6583V480.761H39.173L38.655 485H36.983L37.5011 480.761H33.0503L32.5322 485H30.8602L31.3783 480.761H28.1285V479.042H31.5902L32.179 474.474H28.8821V472.754H32.3909L32.909 468.516H34.581L34.0629 472.754H38.4901L39.0082 468.516H40.6802L40.1621 472.754H43.4119V474.474H39.9502ZM38.2782 474.474H33.8509L33.2622 479.042H37.713L38.2782 474.474ZM49.8908 475.086C52.2458 475.086 53.9727 475.533 55.0717 476.428C56.1863 477.307 56.7436 478.516 56.7436 480.055C56.7436 481.028 56.5082 481.907 56.0372 482.692C55.5819 483.461 54.8833 484.074 53.9413 484.529C53.015 484.969 51.869 485.188 50.5031 485.188C49.3414 485.188 48.2189 485.016 47.1356 484.67C46.0523 484.309 45.1575 483.815 44.451 483.187L45.5343 481.326C46.0994 481.86 46.8216 482.292 47.7008 482.622C48.5799 482.936 49.5062 483.093 50.4796 483.093C51.7198 483.093 52.6775 482.833 53.3526 482.315C54.0433 481.782 54.3887 481.059 54.3887 480.149C54.3887 479.16 54.0119 478.414 53.2584 477.912C52.5048 477.394 51.2174 477.135 49.3963 477.135H45.652L46.5233 468.516H55.8252V470.564H48.5014L48.054 475.086H49.8908ZM62.4006 470.564V476.31H70.6663V478.336H62.4006V485H60.0457V468.516H71.6789V470.564H62.4006ZM85.8916 468.516V470.117L79.2272 485H76.731L83.2541 470.564H75.7184V473.508H73.4576V468.516H85.8916ZM97.6209 476.357C98.5629 476.719 99.285 477.237 99.7874 477.912C100.29 478.587 100.541 479.395 100.541 480.337C100.541 481.326 100.274 482.19 99.7403 482.928C99.2065 483.65 98.4451 484.207 97.456 484.6C96.467 484.992 95.3052 485.188 93.9708 485.188C92.652 485.188 91.4981 484.992 90.509 484.6C89.5357 484.207 88.7821 483.65 88.2483 482.928C87.7146 482.19 87.4477 481.326 87.4477 480.337C87.4477 479.395 87.691 478.587 88.1777 477.912C88.6801 477.237 89.4022 476.719 90.3442 476.357C89.5906 475.996 89.0176 475.518 88.6251 474.921C88.2326 474.324 88.0364 473.618 88.0364 472.802C88.0364 471.891 88.2797 471.098 88.7664 470.423C89.2688 469.748 89.9674 469.23 90.8623 468.869C91.7572 468.508 92.7933 468.327 93.9708 468.327C95.1639 468.327 96.2079 468.508 97.1028 468.869C98.0134 469.23 98.712 469.748 99.1987 470.423C99.7011 471.098 99.9523 471.891 99.9523 472.802C99.9523 473.602 99.7482 474.309 99.34 474.921C98.9475 475.518 98.3745 475.996 97.6209 476.357ZM93.9708 470.235C92.8561 470.235 91.9769 470.478 91.3333 470.965C90.6896 471.436 90.3678 472.079 90.3678 472.896C90.3678 473.712 90.6817 474.356 91.3097 474.827C91.9534 475.298 92.8404 475.533 93.9708 475.533C95.1168 475.533 96.0117 475.298 96.6554 474.827C97.3147 474.356 97.6444 473.712 97.6444 472.896C97.6444 472.079 97.3069 471.436 96.6318 470.965C95.9724 470.478 95.0854 470.235 93.9708 470.235ZM93.9708 483.281C95.2738 483.281 96.3021 483.014 97.0557 482.48C97.8093 481.931 98.1861 481.193 98.1861 480.267C98.1861 479.356 97.8093 478.642 97.0557 478.124C96.3021 477.59 95.2738 477.323 93.9708 477.323C92.6677 477.323 91.6473 477.59 90.9094 478.124C90.1715 478.642 89.8026 479.356 89.8026 480.267C89.8026 481.193 90.1715 481.931 90.9094 482.48C91.6473 483.014 92.6677 483.281 93.9708 483.281ZM106.394 470.564V476.31H114.66V478.336H106.394V485H104.039V468.516H115.673V470.564H106.394ZM121.342 470.564V476.31H129.608V478.336H121.342V485H118.987V468.516H130.621V470.564H121.342Z" fill="#333333"/>
<path d="M11.92 475.624C11.8724 475.501 11.801 475.389 11.71 475.294L6.71 470.294C6.61676 470.201 6.50607 470.127 6.38425 470.076C6.26243 470.026 6.13186 470 6 470C5.7337 470 5.4783 470.106 5.29 470.294C5.19676 470.387 5.1228 470.498 5.07234 470.62C5.02188 470.742 4.99591 470.872 4.99591 471.004C4.99591 471.27 5.1017 471.526 5.29 471.714L8.59 475.004H1C0.734784 475.004 0.48043 475.109 0.292893 475.297C0.105357 475.485 0 475.739 0 476.004C0 476.269 0.105357 476.524 0.292893 476.711C0.48043 476.899 0.734784 477.004 1 477.004H8.59L5.29 480.294C5.19627 480.387 5.12188 480.498 5.07111 480.62C5.02034 480.741 4.9942 480.872 4.9942 481.004C4.9942 481.136 5.02034 481.267 5.07111 481.389C5.12188 481.511 5.19627 481.621 5.29 481.714C5.38296 481.808 5.49356 481.882 5.61542 481.933C5.73728 481.984 5.86799 482.01 6 482.01C6.13201 482.01 6.26272 481.984 6.38458 481.933C6.50644 481.882 6.61704 481.808 6.71 481.714L11.71 476.714C11.801 476.619 11.8724 476.507 11.92 476.384C12.02 476.141 12.02 475.868 11.92 475.624Z" fill="#19AFF0"/>
<path d="M33.7332 152.516V169H31.4018V154.564H27.6811V152.516H33.7332ZM44.4508 158.992C45.5341 158.992 46.4996 159.196 47.3474 159.604C48.2108 160.012 48.8859 160.601 49.3726 161.37C49.8593 162.124 50.1026 162.995 50.1026 163.984C50.1026 165.02 49.8436 165.931 49.3255 166.716C48.8231 167.501 48.1245 168.113 47.2296 168.553C46.3504 168.976 45.3614 169.188 44.2624 169.188C42.0488 169.188 40.3376 168.474 39.1287 167.045C37.9356 165.617 37.339 163.592 37.339 160.97C37.339 159.133 37.6608 157.571 38.3045 156.283C38.9639 154.98 39.8744 153.999 41.0362 153.34C42.2136 152.665 43.5795 152.327 45.1337 152.327C45.9344 152.327 46.688 152.414 47.3945 152.586C48.1009 152.743 48.7132 152.979 49.2313 153.293L48.3364 155.13C47.5514 154.611 46.4996 154.352 45.1808 154.352C43.4696 154.352 42.1273 154.886 41.1539 155.954C40.1806 157.006 39.6939 158.544 39.6939 160.569C39.6939 160.821 39.7017 161.017 39.7174 161.158C40.1884 160.452 40.8321 159.918 41.6485 159.557C42.4805 159.18 43.4146 158.992 44.4508 158.992ZM44.1682 167.281C45.2515 167.281 46.1306 166.99 46.8057 166.41C47.4808 165.829 47.8183 165.052 47.8183 164.078C47.8183 163.105 47.4729 162.336 46.7822 161.77C46.1071 161.19 45.1965 160.899 44.0505 160.899C43.3126 160.899 42.6532 161.04 42.0723 161.323C41.5072 161.606 41.0597 161.99 40.73 162.477C40.4161 162.964 40.2591 163.505 40.2591 164.102C40.2591 164.683 40.4082 165.216 40.7065 165.703C41.0205 166.174 41.4679 166.559 42.0488 166.857C42.6454 167.14 43.3519 167.281 44.1682 167.281ZM59.5031 156.401C60.712 156.401 61.7952 156.668 62.7529 157.202C63.7106 157.736 64.4563 158.481 64.9901 159.439C65.5395 160.397 65.8143 161.504 65.8143 162.759C65.8143 164.015 65.5395 165.13 64.9901 166.103C64.4563 167.061 63.7106 167.807 62.7529 168.341C61.7952 168.874 60.712 169.141 59.5031 169.141C58.6083 169.141 57.784 168.969 57.0305 168.623C56.2926 168.278 55.6646 167.775 55.1465 167.116V173.569H52.8858V156.519H55.0523V158.497C55.5547 157.806 56.1905 157.288 56.9598 156.943C57.7291 156.582 58.5769 156.401 59.5031 156.401ZM59.3147 167.163C60.1154 167.163 60.8297 166.983 61.4577 166.622C62.1014 166.245 62.6038 165.727 62.9648 165.067C63.3416 164.392 63.53 163.623 63.53 162.759C63.53 161.896 63.3416 161.135 62.9648 160.475C62.6038 159.8 62.1014 159.282 61.4577 158.921C60.8297 158.56 60.1154 158.379 59.3147 158.379C58.5298 158.379 57.8154 158.568 57.1718 158.945C56.5438 159.306 56.0414 159.816 55.6646 160.475C55.3035 161.135 55.123 161.896 55.123 162.759C55.123 163.623 55.3035 164.392 55.6646 165.067C56.0257 165.727 56.5281 166.245 57.1718 166.622C57.8154 166.983 58.5298 167.163 59.3147 167.163ZM76.4835 169L72.8805 164.22L69.2304 169H66.7106L71.6324 162.618L66.9461 156.519H69.4659L72.904 161.017L76.3187 156.519H78.7913L74.0815 162.618L79.0504 169H76.4835Z" fill="#333333"/>
<path d="M11.92 159.624C11.8724 159.501 11.801 159.389 11.71 159.294L6.71 154.294C6.61676 154.201 6.50607 154.127 6.38425 154.076C6.26243 154.026 6.13186 154 6 154C5.7337 154 5.4783 154.106 5.29 154.294C5.19676 154.387 5.1228 154.498 5.07234 154.62C5.02188 154.742 4.99591 154.872 4.99591 155.004C4.99591 155.27 5.1017 155.526 5.29 155.714L8.59 159.004H1C0.734784 159.004 0.48043 159.109 0.292893 159.297C0.105357 159.485 0 159.739 0 160.004C0 160.269 0.105357 160.524 0.292893 160.711C0.48043 160.899 0.734784 161.004 1 161.004H8.59L5.29 164.294C5.19627 164.387 5.12188 164.498 5.07111 164.62C5.02034 164.741 4.9942 164.872 4.9942 165.004C4.9942 165.136 5.02034 165.267 5.07111 165.389C5.12188 165.511 5.19627 165.621 5.29 165.714C5.38296 165.808 5.49356 165.882 5.61542 165.933C5.73728 165.984 5.86799 166.01 6 166.01C6.13201 166.01 6.26272 165.984 6.38458 165.933C6.50644 165.882 6.61704 165.808 6.71 165.714L11.71 160.714C11.801 160.619 11.8724 160.507 11.92 160.384C12.02 160.141 12.02 159.868 11.92 159.624Z" fill="#19AFF0"/>
<path d="M39.9502 198.474L39.385 203.042H42.6583V204.761H39.173L38.655 209H36.983L37.5011 204.761H33.0503L32.5322 209H30.8602L31.3783 204.761H28.1285V203.042H31.5902L32.179 198.474H28.8821V196.754H32.3909L32.909 192.516H34.581L34.0629 196.754H38.4901L39.0082 192.516H40.6802L40.1621 196.754H43.4119V198.474H39.9502ZM38.2782 198.474H33.8509L33.2622 203.042H37.713L38.2782 198.474ZM51.4922 199.439C53.1092 199.596 54.3416 200.098 55.1894 200.946C56.0372 201.778 56.4611 202.846 56.4611 204.149C56.4611 205.091 56.2256 205.946 55.7546 206.716C55.2836 207.469 54.5771 208.074 53.6352 208.529C52.7089 208.969 51.5707 209.188 50.2205 209.188C49.0431 209.188 47.9127 209.016 46.8295 208.67C45.7462 208.309 44.8592 207.815 44.1684 207.187L45.2517 205.326C45.8168 205.86 46.539 206.292 47.4182 206.622C48.2974 206.936 49.2315 207.093 50.2205 207.093C51.4451 207.093 52.3949 206.833 53.07 206.315C53.7608 205.797 54.1061 205.083 54.1061 204.172C54.1061 203.262 53.7686 202.555 53.0935 202.053C52.4185 201.551 51.398 201.299 50.0321 201.299H48.7134V199.651L52.858 194.564H44.922V192.516H55.8017V194.117L51.4922 199.439ZM64.8536 199.439C66.4706 199.596 67.703 200.098 68.5508 200.946C69.3985 201.778 69.8224 202.846 69.8224 204.149C69.8224 205.091 69.5869 205.946 69.1159 206.716C68.645 207.469 67.9385 208.074 66.9965 208.529C66.0703 208.969 64.9321 209.188 63.5819 209.188C62.4044 209.188 61.2741 209.016 60.1908 208.67C59.1076 208.309 58.2206 207.815 57.5298 207.187L58.613 205.326C59.1782 205.86 59.9004 206.292 60.7796 206.622C61.6587 206.936 62.5928 207.093 63.5819 207.093C64.8065 207.093 65.7563 206.833 66.4313 206.315C67.1221 205.797 67.4675 205.083 67.4675 204.172C67.4675 203.262 67.13 202.555 66.4549 202.053C65.7798 201.551 64.7594 201.299 63.3935 201.299H62.0748V199.651L66.2194 194.564H58.2833V192.516H69.163V194.117L64.8536 199.439ZM78.2149 199.439C79.832 199.596 81.0644 200.098 81.9121 200.946C82.7599 201.778 83.1838 202.846 83.1838 204.149C83.1838 205.091 82.9483 205.946 82.4773 206.716C82.0063 207.469 81.2999 208.074 80.3579 208.529C79.4316 208.969 78.2934 209.188 76.9433 209.188C75.7658 209.188 74.6355 209.016 73.5522 208.67C72.4689 208.309 71.5819 207.815 70.8911 207.187L71.9744 205.326C72.5396 205.86 73.2618 206.292 74.1409 206.622C75.0201 206.936 75.9542 207.093 76.9433 207.093C78.1678 207.093 79.1176 206.833 79.7927 206.315C80.4835 205.797 80.8289 205.083 80.8289 204.172C80.8289 203.262 80.4913 202.555 79.8163 202.053C79.1412 201.551 78.1207 201.299 76.7549 201.299H75.4361V199.651L79.5808 194.564H71.6447V192.516H82.5244V194.117L78.2149 199.439ZM91.5763 199.439C93.1933 199.596 94.4257 200.098 95.2735 200.946C96.1213 201.778 96.5452 202.846 96.5452 204.149C96.5452 205.091 96.3097 205.946 95.8387 206.716C95.3677 207.469 94.6612 208.074 93.7193 208.529C92.793 208.969 91.6548 209.188 90.3046 209.188C89.1272 209.188 87.9968 209.016 86.9136 208.67C85.8303 208.309 84.9433 207.815 84.2525 207.187L85.3358 205.326C85.901 205.86 86.6231 206.292 87.5023 206.622C88.3815 206.936 89.3156 207.093 90.3046 207.093C91.5292 207.093 92.479 206.833 93.1541 206.315C93.8449 205.797 94.1903 205.083 94.1903 204.172C94.1903 203.262 93.8527 202.555 93.1776 202.053C92.5026 201.551 91.4821 201.299 90.1163 201.299H88.7975V199.651L92.9421 194.564H85.0061V192.516H95.8858V194.117L91.5763 199.439ZM104.938 199.439C106.555 199.596 107.787 200.098 108.635 200.946C109.483 201.778 109.907 202.846 109.907 204.149C109.907 205.091 109.671 205.946 109.2 206.716C108.729 207.469 108.023 208.074 107.081 208.529C106.154 208.969 105.016 209.188 103.666 209.188C102.489 209.188 101.358 209.016 100.275 208.67C99.1917 208.309 98.3047 207.815 97.6139 207.187L98.6972 205.326C99.2623 205.86 99.9845 206.292 100.864 206.622C101.743 206.936 102.677 207.093 103.666 207.093C104.891 207.093 105.84 206.833 106.515 206.315C107.206 205.797 107.552 205.083 107.552 204.172C107.552 203.262 107.214 202.555 106.539 202.053C105.864 201.551 104.843 201.299 103.478 201.299H102.159V199.651L106.304 194.564H98.3675V192.516H109.247V194.117L104.938 199.439ZM118.299 199.439C119.916 199.596 121.148 200.098 121.996 200.946C122.844 201.778 123.268 202.846 123.268 204.149C123.268 205.091 123.032 205.946 122.561 206.716C122.09 207.469 121.384 208.074 120.442 208.529C119.516 208.969 118.378 209.188 117.027 209.188C115.85 209.188 114.72 209.016 113.636 208.67C112.553 208.309 111.666 207.815 110.975 207.187L112.059 205.326C112.624 205.86 113.346 206.292 114.225 206.622C115.104 206.936 116.038 207.093 117.027 207.093C118.252 207.093 119.202 206.833 119.877 206.315C120.568 205.797 120.913 205.083 120.913 204.172C120.913 203.262 120.575 202.555 119.9 202.053C119.225 201.551 118.205 201.299 116.839 201.299H115.52V199.651L119.665 194.564H111.729V192.516H122.609V194.117L118.299 199.439ZM138.147 209.141C136.906 209.141 135.792 208.867 134.803 208.317C133.814 207.768 133.037 207.014 132.471 206.056C131.922 205.083 131.647 203.984 131.647 202.759C131.647 201.535 131.922 200.444 132.471 199.486C133.037 198.513 133.814 197.759 134.803 197.225C135.792 196.676 136.906 196.401 138.147 196.401C139.387 196.401 140.494 196.676 141.467 197.225C142.456 197.759 143.225 198.513 143.775 199.486C144.34 200.444 144.623 201.535 144.623 202.759C144.623 203.984 144.34 205.083 143.775 206.056C143.225 207.014 142.456 207.768 141.467 208.317C140.494 208.867 139.387 209.141 138.147 209.141ZM138.147 207.163C138.947 207.163 139.662 206.983 140.29 206.622C140.933 206.245 141.436 205.727 141.797 205.067C142.158 204.392 142.338 203.623 142.338 202.759C142.338 201.896 142.158 201.135 141.797 200.475C141.436 199.8 140.933 199.282 140.29 198.921C139.662 198.56 138.947 198.379 138.147 198.379C137.346 198.379 136.624 198.56 135.98 198.921C135.352 199.282 134.85 199.8 134.473 200.475C134.112 201.135 133.931 201.896 133.931 202.759C133.931 203.623 134.112 204.392 134.473 205.067C134.85 205.727 135.352 206.245 135.98 206.622C136.624 206.983 137.346 207.163 138.147 207.163ZM149.916 198.615C150.308 197.893 150.889 197.343 151.658 196.966C152.428 196.59 153.362 196.401 154.461 196.401V198.591C154.335 198.576 154.162 198.568 153.943 198.568C152.718 198.568 151.753 198.937 151.046 199.675C150.355 200.397 150.01 201.433 150.01 202.783V209H147.749V196.519H149.916V198.615ZM174.047 198.474L173.482 203.042H176.755V204.761H173.27L172.752 209H171.08L171.598 204.761H167.147L166.629 209H164.957L165.475 204.761H162.225V203.042H165.687L166.276 198.474H162.979V196.754H166.488L167.006 192.516H168.678L168.16 196.754H172.587L173.105 192.516H174.777L174.259 196.754H177.509V198.474H174.047ZM172.375 198.474H167.948L167.359 203.042H171.81L172.375 198.474ZM182.975 194.564V200.31H191.241V202.336H182.975V209H180.62V192.516H192.253V194.564H182.975ZM197.923 194.564V200.31H206.189V202.336H197.923V209H195.568V192.516H207.201V194.564H197.923ZM212.871 194.564V200.31H221.137V202.336H212.871V209H210.516V192.516H222.15V194.564H212.871ZM227.819 194.564V200.31H236.085V202.336H227.819V209H225.465V192.516H237.098V194.564H227.819ZM242.768 194.564V200.31H251.033V202.336H242.768V209H240.413V192.516H252.046V194.564H242.768ZM257.716 194.564V200.31H265.982V202.336H257.716V209H255.361V192.516H266.994V194.564H257.716Z" fill="#333333"/>
<path d="M11.92 200.624C11.8724 200.501 11.801 200.389 11.71 200.294L6.71 195.294C6.61676 195.201 6.50607 195.127 6.38425 195.076C6.26243 195.026 6.13186 195 6 195C5.7337 195 5.4783 195.106 5.29 195.294C5.19676 195.387 5.1228 195.498 5.07234 195.62C5.02188 195.742 4.99591 195.872 4.99591 196.004C4.99591 196.27 5.1017 196.526 5.29 196.714L8.59 200.004H1C0.734784 200.004 0.48043 200.109 0.292893 200.297C0.105357 200.485 0 200.739 0 201.004C0 201.269 0.105357 201.524 0.292893 201.711C0.48043 201.899 0.734784 202.004 1 202.004H8.59L5.29 205.294C5.19627 205.387 5.12188 205.498 5.07111 205.62C5.02034 205.741 4.9942 205.872 4.9942 206.004C4.9942 206.136 5.02034 206.267 5.07111 206.389C5.12188 206.511 5.19627 206.621 5.29 206.714C5.38296 206.808 5.49356 206.882 5.61542 206.933C5.73728 206.984 5.86799 207.01 6 207.01C6.13201 207.01 6.26272 206.984 6.38458 206.933C6.50644 206.882 6.61704 206.808 6.71 206.714L11.71 201.714C11.801 201.619 11.8724 201.507 11.92 201.384C12.02 201.141 12.02 200.868 11.92 200.624Z" fill="#19AFF0"/>
</svg>
