<svg width="314" height="145" viewBox="0 0 314 145" fill="none" xmlns="http://www.w3.org/2000/svg">
<path fill-rule="evenodd" clip-rule="evenodd" d="M88.5837 72.39C88.5837 63.37 81.2737 56 72.1937 56C63.1137 56 55.8037 63.31 55.8037 72.39C55.8037 81.47 63.1137 88.78 72.1937 88.78C81.2737 88.78 88.5837 81.47 88.5837 72.39Z" fill="#19AFF0"/>
<path fill-rule="evenodd" clip-rule="evenodd" d="M142.804 57.0722C147.344 78.3722 141.904 99.9322 129.194 116.322C127.114 102.972 121.404 96.3022 114.734 90.6522C99.0937 77.4122 85.3837 57.9322 104.964 43.3122C114.034 55.0522 124.714 63.9622 129.674 80.1422C128.014 63.6022 121.454 54.6922 112.274 42.5122C111.584 41.6022 110.944 40.7522 110.304 39.8422C128.284 34.2422 139.764 42.5622 142.864 57.0822H142.804V57.0722Z" fill="#6EAB3B"/>
<path fill-rule="evenodd" clip-rule="evenodd" d="M108.274 134.622C89.4337 145.562 67.2337 147.012 47.7437 140.012C59.8137 133.872 64.3937 126.402 67.7037 118.292C75.4437 99.3422 89.7437 80.2922 109.704 94.3822C101.324 106.662 96.1537 119.522 82.2737 129.232C97.4837 122.562 103.994 113.542 112.694 101.052C113.334 100.152 113.974 99.2422 114.614 98.3322C125.504 113.702 121.124 127.152 108.264 134.622H108.274Z" fill="#6EAB3B"/>
<path fill-rule="evenodd" clip-rule="evenodd" d="M23.8437 125.712C7.61371 111.142 -0.596289 90.4821 0.0337108 69.7821C9.58371 79.3321 18.1237 81.3621 26.8237 82.0621C47.2737 83.5521 69.7837 91.3021 62.5337 114.622C48.2837 110.462 34.4037 109.502 20.9037 99.3021C31.9537 111.742 42.5237 115.102 57.1437 119.532C58.2137 119.852 59.2737 120.172 60.3437 120.492C49.0837 135.592 34.9337 135.592 23.8837 125.672L23.8337 125.722L23.8437 125.712Z" fill="#6EAB3B"/>
<path fill-rule="evenodd" clip-rule="evenodd" d="M6.22371 42.6721C15.0837 22.7621 32.1637 8.51207 52.0237 2.74207C45.8837 14.8021 46.5837 23.5621 48.6637 31.9921C53.5237 51.9021 53.1437 75.7021 28.7037 76.0321C28.2737 61.1921 24.8637 47.6921 30.4137 31.7321C22.0337 46.0921 22.0837 57.1921 22.3537 72.4521C22.3537 73.5721 22.4037 74.6921 22.4037 75.7621C4.57371 69.6721 0.203714 56.2221 6.22371 42.6721Z" fill="#6EAB3B"/>
<path fill-rule="evenodd" clip-rule="evenodd" d="M79.7737 0.232073C101.444 2.47207 120.284 14.3221 131.914 31.4521C118.574 29.3121 110.464 32.6821 103.044 37.2721C85.6437 48.0521 62.8537 55.0421 55.0037 31.9321C68.9837 26.9721 80.7337 19.5521 97.6537 19.8221C81.4337 16.2921 70.8637 19.7721 56.4537 24.7321C55.3837 25.1021 54.3737 25.4821 53.3037 25.8021C53.5737 6.96207 64.9937 -1.36793 79.7737 0.182073V0.232073Z" fill="#6EAB3B"/>
<path d="M173.33 70.46H180.23V75.31H173.33V89.33H168V55.38H182.11V60.23H173.33V70.47V70.46Z" fill="#333333"/>
<path d="M206.12 89.33H200.73L199.81 83.17H193.27L192.35 89.33H187.46L192.87 55.38H200.68L206.11 89.33H206.12ZM193.96 78.57H199.1L196.53 61.39L193.96 78.57Z" fill="#333333"/>
<path d="M212.08 63.52C212.08 60.78 212.73 58.67 214.04 57.21C215.35 55.74 217.31 55 219.93 55C222.55 55 224.51 55.74 225.82 57.21C227.13 58.67 227.78 60.78 227.78 63.52V64.59H222.74V63.19C222.74 61.97 222.5 61.1 222.03 60.6C221.57 60.1 220.91 59.85 220.07 59.85C219.23 59.85 218.58 60.1 218.11 60.6C217.65 61.1 217.42 61.97 217.42 63.19C217.42 64.41 217.68 65.39 218.19 66.28C218.7 67.16 219.34 67.99 220.11 68.79C220.89 69.58 221.72 70.38 222.62 71.17C223.51 71.96 224.34 72.83 225.11 73.76C225.89 74.69 226.54 75.76 227.05 76.96C227.58 78.16 227.84 79.57 227.84 81.18C227.84 83.93 227.16 86.04 225.81 87.51C224.47 88.99 222.49 89.72 219.88 89.72C217.27 89.72 215.27 88.98 213.93 87.51C212.59 86.04 211.92 83.93 211.92 81.18V79.09H216.98V81.51C216.98 82.75 217.23 83.61 217.73 84.1C218.23 84.58 218.9 84.81 219.74 84.81C220.58 84.81 221.24 84.57 221.75 84.1C222.25 83.61 222.5 82.75 222.5 81.51C222.5 80.36 222.24 79.33 221.73 78.44C221.21 77.55 220.57 76.71 219.79 75.91C219.02 75.12 218.19 74.33 217.3 73.55C216.41 72.76 215.57 71.89 214.79 70.96C214.02 70.01 213.37 68.94 212.85 67.74C212.33 66.54 212.08 65.14 212.08 63.52Z" fill="#333333"/>
<path d="M240.41 89.33H235.08V55.38H240.41V69.94H246.47V55.38H251.9V89.33H246.47V74.79H240.41V89.33Z" fill="#333333"/>
<path d="M264.85 81.51C264.85 82.75 265.1 83.62 265.6 84.12C266.1 84.61 266.78 84.85 267.63 84.85C268.48 84.85 269.13 84.61 269.64 84.12C270.14 83.62 270.39 82.75 270.39 81.51V63.19C270.39 61.97 270.14 61.1 269.64 60.6C269.14 60.1 268.47 59.85 267.63 59.85C266.79 59.85 266.1 60.1 265.6 60.6C265.1 61.1 264.85 61.97 264.85 63.19V81.51ZM259.52 63.52C259.52 60.78 260.21 58.67 261.61 57.21C263 55.74 265.01 55 267.63 55C270.25 55 272.25 55.74 273.63 57.21C275.02 58.67 275.72 60.78 275.72 63.52V81.18C275.72 83.93 275.02 86.04 273.63 87.51C272.25 88.99 270.25 89.72 267.63 89.72C265.01 89.72 263 88.98 261.61 87.51C260.22 86.04 259.52 83.93 259.52 81.18V63.52Z" fill="#333333"/>
<path d="M283.34 55.37H288.67V89.32H283.34V55.37Z" fill="#333333"/>
<path d="M296.73 55.37H305.17C307.84 55.37 309.83 56.09 311.15 57.52C312.46 58.94 313.11 61.02 313.11 63.77V80.92C313.11 83.68 312.45 85.77 311.15 87.19C309.84 88.61 307.85 89.32 305.17 89.32H296.73V55.37ZM302.06 60.22V84.48H305.07C305.9 84.48 306.56 84.24 307.06 83.75C307.55 83.26 307.79 82.41 307.79 81.18V63.52C307.79 62.3 307.54 61.44 307.06 60.95C306.57 60.46 305.91 60.22 305.07 60.22H302.06Z" fill="#333333"/>
</svg>
