<svg width="179" height="179" viewBox="0 0 179 179" fill="none" xmlns="http://www.w3.org/2000/svg">
<path d="M103.15 141.709C102.036 141.712 100.935 141.466 99.9279 140.989C98.9211 140.511 98.0342 139.814 97.3322 138.949L61.3085 94.199C60.2115 92.8645 59.6118 91.1905 59.6118 89.463C59.6118 87.7354 60.2115 86.0615 61.3085 84.7269L98.6002 39.9769C99.8661 38.4538 101.685 37.496 103.657 37.3142C105.63 37.1323 107.593 37.7414 109.116 39.0073C110.64 40.2733 111.597 42.0925 111.779 44.0647C111.961 46.0368 111.352 48.0005 110.086 49.5236L76.7472 89.5003L108.967 129.477C109.879 130.572 110.459 131.905 110.637 133.319C110.815 134.732 110.584 136.167 109.972 137.454C109.36 138.741 108.392 139.825 107.183 140.579C105.974 141.333 104.575 141.725 103.15 141.709Z" fill="black"/>
</svg>
