<svg width="187" height="173" viewBox="0 0 187 173" fill="none" xmlns="http://www.w3.org/2000/svg">
<path fill-rule="evenodd" clip-rule="evenodd" d="M43.9388 0C43.058 8.78474e-05 42.2132 0.349152 41.5903 0.97042C40.9674 1.59169 40.6175 2.43428 40.6174 3.31289V165.644H0.760254V172.27H186.76V165.644H146.903V3.31289C146.903 2.43428 146.553 1.59169 145.93 0.97042C145.307 0.349152 144.463 8.78474e-05 143.582 0H43.9388ZM47.2603 6.62578H140.26V165.644H47.2603V6.62578ZM70.5103 26.5031C69.6294 26.5032 68.7846 26.8523 68.1618 27.4735C67.5389 28.0948 67.1889 28.9374 67.1888 29.816V109.325C67.1889 110.204 67.5389 111.047 68.1618 111.668C68.7846 112.289 69.6294 112.638 70.5103 112.638H117.01C117.891 112.638 118.736 112.289 119.359 111.668C119.982 111.047 120.332 110.204 120.332 109.325V29.816C120.332 28.9374 119.982 28.0948 119.359 27.4735C118.736 26.8523 117.891 26.5032 117.01 26.5031H70.5103ZM73.8317 33.1289H90.4388V66.2578H73.8317V33.1289ZM97.0817 33.1289H113.689V66.2578H97.0817V33.1289ZM73.8317 72.8836H90.4388V106.012H73.8317V72.8836ZM97.0817 72.8836H113.689V106.012H97.0817V72.8836ZM57.2245 99.3867C56.3436 99.3867 55.4988 99.7357 54.8759 100.357C54.253 100.978 53.9031 101.821 53.9031 102.7C53.9031 103.578 54.253 104.421 54.8759 105.042C55.4988 105.663 56.3436 106.012 57.2245 106.012C58.1054 106.012 58.9503 105.663 59.5731 105.042C60.196 104.421 60.546 103.578 60.546 102.7C60.546 101.821 60.196 100.978 59.5731 100.357C58.9503 99.7357 58.1054 99.3867 57.2245 99.3867ZM70.5103 139.141C69.6294 139.141 68.7846 139.49 68.1618 140.112C67.5389 140.733 67.1889 141.576 67.1888 142.454V155.706C67.1889 156.584 67.5389 157.427 68.1618 158.048C68.7846 158.67 69.6294 159.019 70.5103 159.019H117.01C117.891 159.019 118.736 158.67 119.359 158.048C119.982 157.427 120.332 156.584 120.332 155.706V142.454C120.332 141.576 119.982 140.733 119.359 140.112C118.736 139.49 117.891 139.141 117.01 139.141H70.5103ZM73.8317 145.767H113.689V152.393H73.8317V145.767Z" fill="black"/>
</svg>
