<svg width="190" height="201" viewBox="0 0 190 201" fill="none" xmlns="http://www.w3.org/2000/svg">
<path d="M55.7351 100.676H22.2939L27.8675 28.2206H50.1616L55.7351 100.676Z" fill="#BE1931"/>
<path d="M111.47 100.676H78.0293L83.6028 28.2206H105.897L111.47 100.676Z" fill="#BE1931"/>
<path d="M167.206 100.676H133.765L139.338 28.2206H161.632L167.206 100.676Z" fill="#BE1931"/>
<path d="M25.2983 61.6618L24.4399 72.8088H53.5951L52.7367 61.6618H25.2983Z" fill="#E6E7E8"/>
<path d="M27.0092 39.3677L26.1509 50.5147H51.8727L51.02 39.3677H27.0092Z" fill="#E6E7E8"/>
<path d="M55.306 95.1029L54.4477 83.9559H23.5815L22.7231 95.1029H55.306Z" fill="#E6E7E8"/>
<path d="M81.0331 61.6618L80.1748 72.8088H109.33L108.472 61.6618H81.0331Z" fill="#E6E7E8"/>
<path d="M82.7446 39.3677L81.8862 50.5147H107.608L106.755 39.3677H82.7446Z" fill="#E6E7E8"/>
<path d="M111.041 95.1029L110.189 83.9559H79.3168L78.4585 95.1029H111.041Z" fill="#E6E7E8"/>
<path d="M136.763 61.6618L135.91 72.8088H165.06L164.207 61.6618H136.763Z" fill="#E6E7E8"/>
<path d="M166.776 95.1029L165.923 83.9559H135.052L134.193 95.1029H166.776Z" fill="#E6E7E8"/>
<path d="M138.48 39.3677L137.627 50.5147H163.349L162.496 39.3677H138.48Z" fill="#E6E7E8"/>
<path d="M189.5 189.853C189.5 196.006 184.506 201 178.353 201H11.1471C4.99388 201 0 196.006 0 189.853V111.824C0 105.67 4.99388 100.676 11.1471 100.676H178.353C184.506 100.676 189.5 105.67 189.5 111.824V189.853Z" fill="#A0041E"/>
<path d="M189.5 122.971H0V111.824H189.5V122.971Z" fill="#C1694F"/>
<path d="M50.1618 156.412H27.8677V134.118H50.1618V156.412ZM105.897 156.412H83.603V134.118H105.897V156.412ZM161.632 156.412H139.338V134.118H161.632V156.412ZM50.1618 189.853H27.8677V167.559H50.1618V189.853ZM105.897 189.853H83.603V167.559H105.897V189.853ZM161.632 189.853H139.338V167.559H161.632V189.853Z" fill="#A7A9AC"/>
<path d="M44.5885 0.352936C38.4353 0.352936 33.4414 5.34682 33.4414 11.5C33.4414 14.0471 34.3276 16.3657 35.7656 18.2384C34.3889 19.2583 33.4414 20.8078 33.4414 22.6471C33.4414 25.7236 35.9383 28.2206 39.0149 28.2206C42.0915 28.2206 44.5885 25.7236 44.5885 22.6471C50.7416 22.6471 55.7355 17.6532 55.7355 11.5C55.7355 5.34682 50.7416 0.352936 44.5885 0.352936Z" fill="#D1D3D4"/>
<path d="M100.323 0.352936C94.1702 0.352936 89.1763 5.34682 89.1763 11.5C89.1763 14.0471 90.0625 16.3657 91.5004 18.2384C90.1238 19.2583 89.1763 20.8078 89.1763 22.6471C89.1763 25.7236 91.6732 28.2206 94.7498 28.2206C97.8264 28.2206 100.323 25.7236 100.323 22.6471C106.477 22.6471 111.47 17.6532 111.47 11.5C111.47 5.34682 106.477 0.352936 100.323 0.352936Z" fill="#D1D3D4"/>
<path d="M156.059 0.352936C149.906 0.352936 144.912 5.34682 144.912 11.5C144.912 14.0471 145.798 16.3657 147.236 18.2384C145.859 19.2583 144.912 20.8078 144.912 22.6471C144.912 25.7236 147.403 28.2206 150.485 28.2206C153.567 28.2206 156.059 25.7236 156.059 22.6471C162.212 22.6471 167.206 17.6532 167.206 11.5C167.206 5.34682 162.212 0.352936 156.059 0.352936Z" fill="#D1D3D4"/>
</svg>
