<svg width="98" height="110" viewBox="0 0 98 110" fill="none" xmlns="http://www.w3.org/2000/svg">
<path d="M92.5554 33.092L59.889 4.1966C56.8944 1.49409 53.0178 0 49.0002 0C44.9826 0 41.1059 1.49409 38.1114 4.1966L5.44492 33.092C3.71561 34.6526 2.33562 36.5669 1.39685 38.7077C0.458084 40.8484 -0.017926 43.1663 0.000516098 45.5072V93.5197C0.000516098 97.8906 1.72133 102.082 4.7844 105.173C7.84748 108.264 12.0019 110 16.3337 110H81.6666C85.9984 110 90.1529 108.264 93.2159 105.173C96.279 102.082 97.9998 97.8906 97.9998 93.5197V45.4522C98.0105 43.1206 97.5308 40.8133 96.5923 38.6826C95.6537 36.5519 94.2778 34.6464 92.5554 33.092ZM59.889 99.0131H38.1114V71.546C38.1114 70.0891 38.685 68.6918 39.706 67.6616C40.727 66.6314 42.1118 66.0526 43.5558 66.0526H54.4446C55.8885 66.0526 57.2733 66.6314 58.2943 67.6616C59.3154 68.6918 59.889 70.0891 59.889 71.546V99.0131ZM87.111 93.5197C87.111 94.9767 86.5374 96.3739 85.5164 97.4042C84.4954 98.4344 83.1105 99.0131 81.6666 99.0131H70.7778V71.546C70.7778 67.1752 69.057 62.9833 65.9939 59.8927C62.9308 56.802 58.7764 55.0657 54.4446 55.0657H43.5558C39.2239 55.0657 35.0695 56.802 32.0064 59.8927C28.9434 62.9833 27.2225 67.1752 27.2225 71.546V99.0131H16.3337C14.8898 99.0131 13.505 98.4344 12.484 97.4042C11.4629 96.3739 10.8893 94.9767 10.8893 93.5197V45.4522C10.8903 44.6723 11.0559 43.9014 11.3751 43.191C11.6942 42.4806 12.1597 41.847 12.7404 41.3322L45.4069 12.4917C46.4004 11.611 47.6777 11.1253 49.0002 11.1253C50.3227 11.1253 51.5999 11.611 52.5935 12.4917L85.2599 41.3322C85.8407 41.847 86.3061 42.4806 86.6253 43.191C86.9444 43.9014 87.11 44.6723 87.111 45.4522V93.5197Z" fill="black"/>
</svg>
