<svg width="117" height="117" viewBox="0 0 117 117" fill="none" xmlns="http://www.w3.org/2000/svg">
<path d="M114.826 68.4473L57.0166 10.5469C55.5123 9.04022 53.3632 8.39449 51.4291 8.82497L35.0963 11.6231C35.0963 11.4079 35.0963 11.1926 35.0963 10.9774C32.3025 4.52011 25.6404 0 18.3337 0C8.66292 0 0.711426 7.74876 0.711426 17.2195C0.711426 24.753 5.65425 30.995 12.5312 33.3627L9.52255 50.5822C9.09274 52.7346 9.73745 54.6718 11.2418 56.1785L69.0513 114.079C70.3408 115.37 71.8451 116.016 73.5644 116.016C75.2836 116.016 76.7879 115.37 78.0774 114.079L114.826 77.4876C116.116 76.1961 116.76 74.6894 116.76 72.9675C116.76 71.2455 116.116 69.7388 114.826 68.4473ZM5.00953 17.2195C5.00953 10.1164 11.0269 4.30486 18.3337 4.30486C23.7063 4.30486 28.6491 7.53351 30.7982 12.4841L20.0529 14.4213C17.474 14.8518 15.325 17.0042 14.8952 19.5871L13.1759 29.2731C8.44802 27.1206 5.00953 22.6005 5.00953 17.2195ZM111.818 74.4742L75.0687 111.281C74.2091 112.142 72.9196 112.142 72.06 111.281L14.2505 53.3803C13.8207 52.9498 13.6057 52.3041 13.6057 51.6584L16.6144 34.4389C17.2591 34.4389 17.6889 34.4389 18.3337 34.4389C20.0529 34.4389 21.9871 34.2237 23.4914 33.5779C24.7808 34.8694 26.715 35.5151 28.4342 35.5151C30.3684 35.5151 32.3025 34.8694 33.8069 33.3627C36.8155 30.3493 36.8155 25.6139 33.8069 22.8158C30.7982 19.8024 26.0703 20.0176 23.2765 22.8158C21.3423 24.753 20.6976 27.5511 21.3423 29.9188C20.4827 30.1341 19.4082 30.1341 18.3337 30.1341C18.1188 30.1341 17.689 30.1341 17.474 30.1341L19.1933 20.2329C19.4082 19.3719 20.0529 18.7262 20.9125 18.5109L52.0738 12.9146C52.2887 12.9146 52.2887 12.9146 52.5036 12.9146C53.1483 12.9146 53.5781 13.1298 54.008 13.5603L111.818 71.4608C112.247 71.8912 112.462 72.3217 112.462 72.9675C112.462 73.6132 112.247 74.0437 111.818 74.4742ZM26.5001 25.8292C27.1448 25.1835 28.0044 24.753 28.864 24.753C29.0789 24.753 29.2938 24.753 29.5087 24.9682C29.2938 25.1835 29.0789 25.1835 28.864 25.3987C28.0044 26.4749 26.715 27.5511 25.4255 28.1969C25.4255 27.3359 25.6404 26.4749 26.5001 25.8292ZM31.6578 28.4121C31.4429 29.0578 31.228 29.7036 30.7982 30.1341C30.1535 30.7798 29.5087 30.995 28.6491 30.995C29.9386 30.3493 30.7982 29.4883 31.6578 28.4121Z" fill="#231F20"/>
<path d="M52.9751 31.9453L50.4764 34.694L49.0229 33.3727L51.5216 30.624L52.9751 31.9453ZM38.9663 47L36.6878 49.5064L35.2342 48.1851L37.5127 45.6787L38.9663 47ZM42.7694 44.8756C43.0913 44.5215 43.2999 44.1609 43.3954 43.7939C43.497 43.4325 43.4925 43.0256 43.3818 42.5733C43.2773 42.1266 43.0678 41.5958 42.7532 40.9809C42.2281 39.9362 41.8161 38.9604 41.5174 38.0536C41.2305 37.1461 41.1534 36.2762 41.2861 35.4438C41.4244 34.6053 41.8606 33.7822 42.5947 32.9747C43.2949 32.2045 44.0852 31.7033 44.9655 31.4712C45.8459 31.2391 46.7474 31.2645 47.6701 31.5473C48.6047 31.8297 49.5037 32.3633 50.3671 33.1482C51.0255 33.7468 51.5315 34.3882 51.885 35.0726C52.2442 35.7508 52.4441 36.4544 52.4848 37.1834C52.5311 37.9062 52.4111 38.631 52.1248 39.3578C51.8385 40.0845 51.3792 40.7958 50.7467 41.4915L48.0726 39.0606C48.4114 38.6879 48.6703 38.3219 48.8493 37.9628C49.0283 37.6036 49.1277 37.2572 49.1474 36.9235C49.1734 36.5954 49.1232 36.2887 48.9967 36.0036C48.8758 35.7122 48.688 35.4508 48.4334 35.2192C48.0544 34.8748 47.6761 34.667 47.2983 34.5958C46.9205 34.5247 46.56 34.5656 46.2167 34.7187C45.8852 34.8712 45.5726 35.1089 45.279 35.4319C44.991 35.7487 44.7956 36.0759 44.6929 36.4136C44.5963 36.757 44.6006 37.1579 44.7056 37.6164C44.8163 38.0687 45.0269 38.6233 45.3375 39.28C45.8627 40.3247 46.2659 41.3038 46.5471 42.2175C46.8284 43.1312 46.9027 44.0042 46.77 44.8365C46.6373 45.6689 46.2039 46.4888 45.4698 47.2964C44.7414 48.0977 43.9339 48.6115 43.0473 48.838C42.1664 49.0583 41.255 49.0125 40.3131 48.7008C39.3768 48.3829 38.4677 47.8231 37.5856 47.0212C37.0141 46.5017 36.5135 45.9105 36.0838 45.2476C35.6597 44.5784 35.3731 43.8641 35.224 43.1046C35.0749 42.3451 35.1206 41.5584 35.3611 40.7447C35.6073 39.9248 36.1088 39.0986 36.8654 38.2663L39.5489 40.7057C39.1367 41.1591 38.8512 41.5917 38.6926 42.0034C38.5395 42.4088 38.4774 42.7891 38.5062 43.1443C38.5469 43.4989 38.6576 43.8265 38.8383 44.1269C39.019 44.4273 39.2367 44.6932 39.4914 44.9248C39.8889 45.2862 40.28 45.5112 40.6645 45.5998C41.0553 45.6941 41.4289 45.6763 41.7852 45.5464C42.1533 45.416 42.4814 45.1924 42.7694 44.8756ZM60.4252 52.8594L58.2907 55.2074C57.3647 56.2261 56.4569 57.0063 55.5676 57.5478C54.6838 58.0832 53.8224 58.4006 52.9833 58.5C52.156 58.5988 51.3612 58.5059 50.5988 58.2213C49.8365 57.9367 49.1137 57.4839 48.4304 56.8627C47.8838 56.3658 47.4365 55.8344 47.0887 55.2686C46.7465 54.6966 46.5214 54.0893 46.4135 53.4467C46.3119 52.8097 46.3305 52.1403 46.4694 51.4383C46.6202 50.7359 46.9121 50.0029 47.3452 49.2394C47.7783 48.4759 48.3675 47.6842 49.1129 46.8643L51.2474 44.5163C52.1735 43.4975 53.0756 42.7236 53.9536 42.1945C54.8436 41.6648 55.7022 41.3505 56.5295 41.2517C57.3629 41.1585 58.158 41.2573 58.9147 41.5481C59.6771 41.8327 60.3999 42.2855 61.0832 42.9067C61.6298 43.4036 62.0711 43.9353 62.4071 44.5016C62.755 45.0674 62.9857 45.6686 63.0992 46.305C63.2127 46.9414 63.1941 47.6108 63.0433 48.3133C62.8982 49.0096 62.6091 49.7394 62.176 50.5029C61.7485 51.2602 61.1649 52.0457 60.4252 52.8594ZM55.2761 53.1136L58.0628 50.0481C58.5089 49.5574 58.8705 49.1034 59.1478 48.6861C59.4313 48.2744 59.636 47.8932 59.7619 47.5426C59.8934 47.1857 59.955 46.8559 59.9465 46.5532C59.938 46.2505 59.8683 45.9716 59.7373 45.7163C59.6063 45.4611 59.4196 45.2234 59.1774 45.0031C58.873 44.7265 58.5491 44.5398 58.2058 44.4433C57.8687 44.3524 57.5008 44.3639 57.1021 44.478C56.7091 44.5859 56.2743 44.8146 55.7977 45.1642C55.333 45.5131 54.8239 45.992 54.2705 46.6008L51.4838 49.6662C51.0377 50.157 50.6701 50.6113 50.381 51.0291C50.0981 51.4527 49.8881 51.846 49.7508 52.2091C49.6255 52.5716 49.5611 52.9045 49.5577 53.2077C49.5662 53.5104 49.636 53.7894 49.767 54.0446C49.9042 54.3055 50.0939 54.546 50.3362 54.7663C50.6344 55.0373 50.952 55.2183 51.2891 55.3092C51.6381 55.3996 52.0119 55.3877 52.4106 55.2736C52.8211 55.159 53.2616 54.924 53.732 54.5688C54.2023 54.2136 54.7171 53.7286 55.2761 53.1136ZM56.4206 61.4205C56.782 61.0229 57.2208 60.8148 57.7369 60.7962C58.2592 60.7832 58.7502 60.9856 59.2099 61.4035C59.6696 61.8213 59.9146 62.2881 59.9451 62.8036C59.9819 63.3248 59.8195 63.7842 59.4581 64.1818C59.0967 64.5793 58.6549 64.7846 58.1325 64.7976C57.6164 64.8162 57.1285 64.6166 56.6688 64.1988C56.2092 63.7809 55.961 63.3114 55.9243 62.7901C55.8938 62.2746 56.0592 61.818 56.4206 61.4205ZM76.9173 67.8516L74.7828 70.1996C73.8568 71.2184 72.949 71.9985 72.0597 72.5401C71.1759 73.0754 70.3145 73.3928 69.4754 73.4922C68.6481 73.591 67.8533 73.4981 67.091 73.2136C66.3286 72.929 65.6058 72.4761 64.9225 71.855C64.3759 71.358 63.9286 70.8267 63.5808 70.2609C63.2386 69.6888 63.0135 69.0815 62.9057 68.4389C62.804 67.8019 62.8226 67.1325 62.9615 66.4306C63.1123 65.7281 63.4042 64.9951 63.8373 64.2316C64.2704 63.4682 64.8597 62.6765 65.605 61.8565L67.7395 59.5085C68.6656 58.4898 69.5677 57.7158 70.4458 57.1867C71.3357 56.657 72.1943 56.3427 73.0216 56.2439C73.8551 56.1507 74.6501 56.2495 75.4068 56.5403C76.1692 56.8249 76.892 57.2778 77.5753 57.8989C78.1219 58.3958 78.5632 58.9275 78.8992 59.4939C79.2471 60.0597 79.4778 60.6608 79.5913 61.2972C79.7048 61.9336 79.6862 62.603 79.5354 63.3055C79.3903 64.0018 79.1012 64.7317 78.6681 65.4951C78.2407 66.2524 77.6571 67.0379 76.9173 67.8516ZM71.7682 68.1058L74.5549 65.0403C75.001 64.5496 75.3627 64.0956 75.6399 63.6783C75.9234 63.2666 76.1281 62.8855 76.254 62.5348C76.3856 62.1779 76.4471 61.8481 76.4386 61.5454C76.4302 61.2428 76.3604 60.9638 76.2294 60.7086C76.0984 60.4533 75.9117 60.2156 75.6695 59.9954C75.3651 59.7187 75.0413 59.5321 74.6979 59.4355C74.3608 59.3446 73.9929 59.3562 73.5942 59.4703C73.2012 59.5781 72.7664 59.8068 72.2898 60.1564C71.8251 60.5054 71.316 60.9842 70.7626 61.593L67.9759 64.6585C67.5298 65.1492 67.1622 65.6035 66.8731 66.0214C66.5902 66.4449 66.3802 66.8382 66.243 67.2013C66.1176 67.5638 66.0532 67.8967 66.0499 68.2C66.0583 68.5026 66.1281 68.7816 66.2591 69.0368C66.3963 69.2977 66.5861 69.5383 66.8283 69.7585C67.1265 70.0295 67.4441 70.2105 67.7812 70.3014C68.1302 70.3918 68.504 70.3799 68.9027 70.2658C69.3132 70.1512 69.7537 69.9163 70.2241 69.5611C70.6945 69.2059 71.2092 68.7208 71.7682 68.1058ZM87.8748 77.8126L85.7403 80.1606C84.8142 81.1793 83.9065 81.9594 83.0171 82.501C82.1334 83.0364 81.272 83.3537 80.4329 83.4531C79.6056 83.552 78.8108 83.4591 78.0484 83.1745C77.2861 82.8899 76.5633 82.437 75.88 81.8159C75.3334 81.319 74.8861 80.7876 74.5383 80.2218C74.196 79.6498 73.971 79.0425 73.8631 78.3998C73.7615 77.7629 73.7801 77.0934 73.919 76.3915C74.0698 75.689 74.3617 74.9561 74.7948 74.1926C75.2279 73.4291 75.8171 72.6374 76.5625 71.8175L78.697 69.4694C79.6231 68.4507 80.5251 67.6768 81.4032 67.1476C82.2932 66.6179 83.1518 66.3037 83.979 66.2048C84.8125 66.1116 85.6076 66.2105 86.3643 66.5013C87.1267 66.7858 87.8495 67.2387 88.5328 67.8599C89.0794 68.3568 89.5207 68.8884 89.8567 69.4548C90.2046 70.0206 90.4353 70.6217 90.5488 71.2581C90.6623 71.8945 90.6437 72.564 90.4929 73.2665C90.3478 73.9627 90.0587 74.6926 89.6256 75.4561C89.1981 76.2133 88.6145 76.9988 87.8748 77.8126ZM82.7257 78.0668L85.5124 75.0013C85.9585 74.5106 86.3201 74.0565 86.5974 73.6392C86.8809 73.2276 87.0856 72.8464 87.2115 72.4957C87.343 72.1388 87.4046 71.809 87.3961 71.5064C87.3876 71.2037 87.3179 70.9247 87.1869 70.6695C87.0559 70.4143 86.8692 70.1765 86.627 69.9563C86.3226 69.6796 85.9987 69.493 85.6554 69.3964C85.3183 69.3055 84.9504 69.3171 84.5517 69.4312C84.1587 69.5391 83.7239 69.7678 83.2473 70.1173C82.7826 70.4663 82.2735 70.9452 81.7201 71.5539L78.9334 74.6194C78.4873 75.1101 78.1197 75.5644 77.8306 75.9823C77.5477 76.4058 77.3376 76.7991 77.2004 77.1622C77.0751 77.5248 77.0107 77.8577 77.0073 78.1609C77.0158 78.4636 77.0855 78.7425 77.2166 78.9978C77.3538 79.2587 77.5435 79.4992 77.7858 79.7194C78.0839 79.9905 78.4016 80.1715 78.7387 80.2624C79.0877 80.3527 79.4615 80.3408 79.8602 80.2268C80.2707 80.1121 80.7112 79.8772 81.1816 79.522C81.6519 79.1668 82.1666 78.6817 82.7257 78.0668Z" fill="black"/>
</svg>
