<svg width="118" height="118" viewBox="0 0 118 118" fill="none" xmlns="http://www.w3.org/2000/svg">
<path d="M113.749 68.0851C115.607 65.462 117.712 62.4851 117.712 58.9482C117.712 55.4113 115.607 52.4344 113.749 49.8112C112.532 48.087 111.38 46.4561 110.982 44.9627C110.551 43.3564 110.737 41.303 110.928 39.1269C111.228 35.8258 111.532 32.4117 109.83 29.4692C108.098 26.4825 104.827 24.9695 101.943 23.6382C99.991 22.7343 98.1469 21.8845 97.0041 20.7448C95.8662 19.6052 95.0128 17.7532 94.1104 15.7932C92.7812 12.9047 91.2706 9.62329 88.2885 7.89906C85.3458 6.19938 81.9517 6.50395 78.6411 6.79378C76.4684 6.99027 74.4182 7.17203 72.8144 6.74465C71.3185 6.34184 69.695 5.19235 67.9735 3.96918C65.3593 2.1074 62.3871 0 58.8558 0C55.3244 0 52.3522 2.1074 49.7331 3.96918C48.0067 5.18744 46.3832 6.34184 44.8873 6.74465C43.2835 7.17203 41.2334 6.98536 39.0655 6.78887C35.7745 6.49904 32.3609 6.18956 29.423 7.88923C26.441 9.61838 24.9303 12.8949 23.6012 15.7883C22.6987 17.7483 21.8453 19.6003 20.7074 20.7399C19.5695 21.8796 17.7254 22.7343 15.7635 23.6382C12.8796 24.9695 9.6082 26.4776 7.87686 29.4692C6.17985 32.4068 6.48394 35.8208 6.78313 39.1219C6.97441 41.2981 7.16078 43.3564 6.72918 44.9578C6.3319 46.4561 5.17931 48.087 3.96295 49.8112C2.10409 52.4344 0 55.4113 0 58.9482C0 62.4851 2.10409 65.462 3.96295 68.0851C5.17931 69.8094 6.3319 71.4403 6.72918 72.9336C7.16078 74.54 6.97441 76.5933 6.78313 78.7695C6.48394 82.0706 6.17985 85.4847 7.88177 88.4272C9.61311 91.4139 12.8845 92.9269 15.7684 94.2581C17.7205 95.162 19.5646 96.0118 20.7074 97.1515C21.8453 98.2912 22.6987 100.143 23.6012 102.103C24.9303 104.992 26.441 108.273 29.423 109.997C32.3609 111.697 35.7647 111.392 39.0704 111.103C41.2383 110.906 43.2933 110.724 44.8971 111.152C46.3931 111.555 48.0165 112.704 49.738 113.927C52.3522 115.789 55.3244 117.896 58.8558 117.896C62.3871 117.896 65.3593 115.789 67.9784 113.927C69.7048 112.704 71.3283 111.555 72.8193 111.152C74.4231 110.724 76.4733 110.911 78.646 111.103C81.9419 111.402 85.3556 111.707 88.2885 110.002C91.2706 108.273 92.7812 104.997 94.1153 102.108C95.0177 100.148 95.8662 98.2961 97.009 97.1564C98.1518 96.0168 99.991 95.162 101.953 94.2581C104.837 92.9269 108.108 91.4139 109.835 88.4272C111.537 85.4847 111.228 82.0706 110.933 78.7695C110.742 76.5933 110.556 74.54 110.987 72.9336C111.38 71.4403 112.532 69.8094 113.749 68.0851Z" fill="#303C42"/>
<path d="M109.747 65.2458C108.334 67.2501 106.867 69.3231 106.24 71.6712C105.587 74.1176 105.823 76.7064 106.044 79.2117C106.284 81.8693 106.509 84.3746 105.587 85.9711C104.641 87.6069 102.336 88.6729 99.8931 89.8027C97.632 90.8441 95.2925 91.9249 93.5367 93.6884C91.7808 95.4519 90.7018 97.7902 89.6571 100.055C88.5339 102.501 87.4696 104.805 85.8315 105.758C84.2473 106.682 81.7459 106.461 79.0827 106.215C76.5862 105.994 73.9965 105.753 71.5589 106.411C69.2096 107.04 67.1497 108.504 65.1437 109.924C62.9268 111.496 60.8227 112.984 58.8559 112.984C56.8891 112.984 54.785 111.496 52.5681 109.919C50.5671 108.499 48.5022 107.035 46.1529 106.406C44.9561 106.087 43.7251 105.979 42.4891 105.979C41.1992 105.979 39.9043 106.092 38.6242 106.21C35.961 106.446 33.4596 106.667 31.8754 105.748C30.2422 104.8 29.1779 102.491 28.0547 100.045C27.01 97.7804 25.931 95.4372 24.1751 93.6786C22.4193 91.9199 20.0798 90.8392 17.8187 89.7978C15.3811 88.6729 13.071 87.6069 12.1244 85.9662C11.2024 84.3697 11.428 81.8643 11.6683 79.2068C11.889 76.7015 12.1244 74.1077 11.4721 71.6614C10.8443 69.3133 9.37782 67.2452 7.96528 65.2409C6.39089 63.0255 4.90479 60.9181 4.90479 58.9482C4.90479 56.9784 6.39089 54.871 7.96528 52.6506C9.37782 50.6463 10.8443 48.5733 11.4721 46.2252C12.1244 43.7789 11.889 41.19 11.6683 38.6847C11.428 36.0272 11.2024 33.5219 12.1244 31.9253C13.071 30.2895 15.3762 29.2235 17.8187 28.0937C20.0798 27.0523 22.4144 25.9716 24.1751 24.2129C25.9359 22.4543 27.01 20.1111 28.0547 17.8416C29.1779 15.4002 30.2422 13.0914 31.8803 12.1433C33.4596 11.2198 35.9708 11.4457 38.6291 11.6815C41.1207 11.9026 43.7153 12.1384 46.1529 11.485C48.5022 10.8562 50.5621 9.39236 52.5681 7.97269C54.785 6.40074 56.8891 4.91229 58.8559 4.91229C60.8227 4.91229 62.9268 6.40074 65.1437 7.9776C67.1448 9.39727 69.2096 10.8612 71.5589 11.4899C74.0014 12.1433 76.5813 11.9124 79.0876 11.6864C81.741 11.4506 84.2423 11.2198 85.8364 12.1482C87.4696 13.0963 88.5339 15.4051 89.6571 17.8514C90.7018 20.116 91.7808 22.4592 93.5367 24.2178C95.2925 25.9765 97.632 27.0572 99.8931 28.0986C102.331 29.2235 104.641 30.2895 105.587 31.9303C106.509 33.5268 106.284 36.0321 106.044 38.6897C105.823 41.195 105.587 43.7887 106.24 46.235C106.867 48.5831 108.334 50.6512 109.747 52.6555C111.321 54.871 112.807 56.9784 112.807 58.9482C112.807 60.9181 111.321 63.0255 109.747 65.2458Z" fill="#FFA533"/>
<path opacity="0.1" d="M105.587 83.5148C104.641 85.0032 102.335 85.971 99.893 86.9977C97.6319 87.9458 95.2924 88.9282 93.5365 90.5297C91.7807 92.1311 90.7017 94.2581 89.657 96.3213C88.5338 98.5417 87.4695 100.639 85.8314 101.504C84.2471 102.344 81.7458 102.142 79.0826 101.921C76.5861 101.72 73.9964 101.504 71.5588 102.098C69.2095 102.668 67.1495 104.004 65.1435 105.291C62.9266 106.721 60.8226 108.072 58.8558 108.072C56.889 108.072 54.7849 106.721 52.568 105.286C50.5669 103.999 48.5021 102.663 46.1528 102.093C44.956 101.804 43.725 101.705 42.489 101.705C41.1991 101.705 39.9042 101.808 38.6241 101.917C35.9609 102.133 33.4595 102.329 31.8753 101.499C30.2421 100.634 29.1778 98.5368 28.0546 96.3164C27.0099 94.2582 25.9309 92.1262 24.175 90.5247C22.4192 88.9233 20.0797 87.9408 17.8186 86.9977C15.381 85.971 13.0709 85.0032 12.1243 83.5148C11.727 82.8909 11.5701 82.0902 11.5112 81.2109C11.3935 83.0923 11.4426 84.7822 12.1243 85.971C13.0709 87.6068 15.381 88.6728 17.8186 89.8026C20.0797 90.8441 22.4192 91.9248 24.175 93.6834C25.9309 95.442 27.0099 97.7852 28.0546 100.05C29.1778 102.496 30.2421 104.8 31.8753 105.753C33.4595 106.672 35.9609 106.451 38.6241 106.215C39.9042 106.102 41.1991 105.984 42.489 105.984C43.725 105.984 44.956 106.087 46.1528 106.411C48.5021 107.04 50.562 108.504 52.568 109.924C54.7849 111.496 56.889 112.984 58.8558 112.984C60.8226 112.984 62.9266 111.496 65.1435 109.919C67.1446 108.499 69.2095 107.035 71.5588 106.406C73.9964 105.748 76.5861 105.989 79.0826 106.21C81.7458 106.451 84.2471 106.677 85.8314 105.753C87.4695 104.805 88.5338 102.496 89.657 100.05C90.7017 97.7852 91.7807 95.442 93.5365 93.6834C95.2924 91.9248 97.6319 90.8441 99.893 89.7977C102.335 88.6728 104.641 87.6068 105.587 85.9661C106.269 84.7822 106.318 83.0874 106.2 81.206C106.141 82.0902 105.985 82.8909 105.587 83.5148Z" fill="black"/>
<path d="M41.5182 75.8957C41.5133 75.8957 41.5133 75.8957 41.5182 75.8957C39.5466 75.8957 37.7024 76.662 36.3144 78.0522C35.358 79.0052 33.7983 79.015 32.8419 78.0522C32.376 77.5855 32.1258 76.9715 32.1258 76.3132C32.1258 75.655 32.3809 75.0409 32.8419 74.5743L36.3095 71.0963C37.2659 70.1384 37.2659 68.5812 36.3095 67.6233C35.3531 66.6654 33.7983 66.6654 32.8419 67.6233L29.3743 71.0963C27.9863 72.4865 27.2212 74.3385 27.2212 76.3083C27.2212 78.2733 27.9863 80.1252 29.3743 81.5203C32.2435 84.394 36.9226 84.3891 39.782 81.5203C40.2479 81.0586 40.861 80.8031 41.5133 80.8031H41.5182C42.1755 80.8031 42.7885 81.0586 43.2545 81.5203C44.2109 82.4782 44.2109 84.0354 43.2545 84.9934L39.782 88.4713C38.8256 89.4292 38.8256 90.9864 39.782 91.9443C40.2626 92.4257 40.8904 92.6615 41.5182 92.6615C42.146 92.6615 42.7738 92.4208 43.2545 91.9443L46.7221 88.4713C49.5913 85.5976 49.5913 80.9259 46.7221 78.0522C45.3291 76.662 43.4801 75.8957 41.5182 75.8957ZM53.6523 57.2091C50.788 54.3354 46.1139 54.3354 43.2496 57.2091C41.8616 58.5993 41.0964 60.4513 41.0964 62.4211C41.0964 64.391 41.8616 66.2429 43.2496 67.6331L53.6523 78.0571C54.133 78.5385 54.7608 78.7743 55.3886 78.7743C56.0164 78.7743 56.6442 78.5336 57.1248 78.0571C58.0812 77.0992 58.0812 75.542 57.1248 74.5841L55.3886 72.8451L58.8562 69.3672L60.5875 71.1012C61.5439 72.0591 63.0987 72.0591 64.0551 71.1012C65.0115 70.1433 65.0115 68.5861 64.0551 67.6282L53.6523 57.2091ZM51.921 69.3672L46.7172 64.1552C46.2512 63.6934 46.0011 63.0794 46.0011 62.4211C46.0011 61.7678 46.2561 61.1488 46.7172 60.6821C47.6736 59.7242 49.2283 59.7242 50.1847 60.6821L55.3886 65.8941L51.921 69.3672ZM74.4627 53.7361L69.2589 58.9481L57.1199 46.79C56.1635 45.8321 54.6087 45.8321 53.6523 46.79C52.6959 47.7479 52.6959 49.3052 53.6523 50.2631L67.5227 64.1552C68.0033 64.6366 68.6311 64.8724 69.2589 64.8724C69.8867 64.8724 70.5145 64.6317 70.9952 64.1552L77.9303 57.2091C78.8867 56.2512 78.8867 54.694 77.9303 53.7361C76.9739 52.7782 75.4191 52.7782 74.4627 53.7361ZM88.338 39.844L83.1342 45.056L79.6617 41.578L83.1342 38.105C84.0906 37.1471 84.0906 35.5899 83.1342 34.632C82.1777 33.6741 80.623 33.6741 79.6666 34.632L76.1941 38.105L72.7265 34.632L77.9303 29.42C78.8867 28.4621 78.8867 26.9049 77.9303 25.9469C76.9739 24.989 75.4191 24.989 74.4627 25.9469L67.5276 32.893C67.0665 33.3548 66.8115 33.9786 66.8115 34.632C66.8115 35.2853 67.0714 35.9092 67.5276 36.3709L74.4627 43.3121C74.4627 43.3121 74.4627 43.3121 74.4627 43.317H74.4676L81.4028 50.2631C81.8638 50.7248 82.4867 50.9803 83.1391 50.9803C83.7914 50.9803 84.4143 50.7199 84.8753 50.2631L91.8105 43.3121C92.7669 42.3542 92.7669 40.797 91.8105 39.8391C90.8541 38.8812 89.2944 38.8861 88.338 39.844Z" fill="#303C42"/>
<path opacity="0.2" d="M12.1247 34.3816C13.0713 32.8931 15.3765 31.9254 17.819 30.8987C20.0801 29.9506 22.4147 28.9682 24.1755 27.3716C25.9362 25.7751 27.0103 23.6432 28.055 21.58C29.1782 19.3596 30.2425 17.262 31.8807 16.3974C33.46 15.5574 35.9711 15.7637 38.6294 15.9799C41.121 16.1813 43.7156 16.3974 46.1532 15.803C48.5025 15.2332 50.5625 13.897 52.5685 12.61C54.7854 11.1756 56.8894 9.82466 58.8562 9.82466C60.823 9.82466 62.9271 11.1756 65.144 12.61C67.1451 13.897 69.2099 15.2332 71.5592 15.803C74.0018 16.3974 76.5816 16.1862 79.0879 15.9799C81.7413 15.7637 84.2427 15.5574 85.8367 16.3974C87.4699 17.262 88.5342 19.3596 89.6574 21.58C90.7021 23.6382 91.7811 25.7702 93.537 27.3716C95.2928 28.9731 97.6324 29.9555 99.8934 30.8987C102.331 31.9254 104.641 32.8931 105.588 34.3816C105.985 35.0055 106.142 35.8062 106.201 36.6855C106.318 34.8041 106.269 33.1142 105.588 31.9254C104.641 30.2896 102.331 29.2236 99.8934 28.0938C97.6324 27.0523 95.2928 25.9716 93.537 24.213C91.7811 22.4544 90.7021 20.1112 89.6574 17.8466C88.5342 15.4002 87.4699 13.0963 85.8367 12.1433C84.2427 11.2198 81.7413 11.4457 79.0879 11.6815C76.5816 11.9075 74.0018 12.1384 71.5592 11.485C69.2099 10.8563 67.15 9.39237 65.144 7.9727C62.9271 6.40074 60.823 4.91229 58.8562 4.91229C56.8894 4.91229 54.7854 6.40074 52.5685 7.97761C50.5674 9.39237 48.5025 10.8563 46.1532 11.485C43.7156 12.1384 41.121 11.9026 38.6294 11.6815C35.9711 11.4457 33.46 11.2198 31.8807 12.1433C30.2425 13.0914 29.1782 15.4002 28.055 17.8416C27.0103 20.1112 25.9313 22.4494 24.1755 24.213C22.4196 25.9765 20.0801 27.0523 17.819 28.0938C15.3765 29.2187 13.0713 30.2847 12.1247 31.9254C11.4381 33.1093 11.389 34.8041 11.5068 36.6855C11.5705 35.8062 11.7275 35.0055 12.1247 34.3816Z" fill="white"/>
<path d="M113.749 68.0851C115.607 65.462 117.712 62.4851 117.712 58.9482C117.712 55.4113 115.607 52.4344 113.749 49.8112C112.532 48.087 111.38 46.4561 110.982 44.9627C110.551 43.3564 110.737 41.303 110.928 39.1269C111.228 35.8258 111.532 32.4117 109.83 29.4692C108.098 26.4825 104.827 24.9695 101.943 23.6382C99.991 22.7343 98.1469 21.8845 97.0041 20.7448C95.8662 19.6052 95.0128 17.7532 94.1104 15.7932C92.7812 12.9047 91.2706 9.62329 88.2885 7.89906C85.3458 6.19938 81.9517 6.50395 78.6411 6.79378C76.4684 6.99027 74.4182 7.17203 72.8144 6.74465C71.3185 6.34184 69.695 5.19235 67.9735 3.96918C65.3593 2.1074 62.3871 0 58.8558 0C55.3244 0 52.3522 2.1074 49.7331 3.96918C48.0067 5.18744 46.3832 6.34184 44.8873 6.74465C43.2835 7.17203 41.2334 6.98536 39.0655 6.78887C35.7745 6.49904 32.3609 6.18956 29.423 7.88923C26.441 9.61838 24.9303 12.8949 23.6012 15.7883C22.6987 17.7483 21.8453 19.6003 20.7074 20.7399C19.5695 21.8796 17.7254 22.7343 15.7635 23.6382C12.8796 24.9695 9.6082 26.4776 7.87686 29.4692C6.17985 32.4068 6.48394 35.8208 6.78313 39.1219C6.97441 41.2981 7.16078 43.3564 6.72918 44.9578C6.3319 46.4561 5.17931 48.087 3.96295 49.8112C2.10409 52.4344 0 55.4113 0 58.9482C0 62.4851 2.10409 65.462 3.96295 68.0851C5.17931 69.8094 6.3319 71.4403 6.72918 72.9336C7.16078 74.54 6.97441 76.5933 6.78313 78.7695C6.48394 82.0706 6.17985 85.4847 7.88177 88.4272C9.61311 91.4139 12.8845 92.9269 15.7684 94.2581C17.7205 95.162 19.5646 96.0118 20.7074 97.1515C21.8453 98.2912 22.6987 100.143 23.6012 102.103C24.9303 104.992 26.441 108.273 29.423 109.997C32.3609 111.697 35.7647 111.392 39.0704 111.103C41.2383 110.906 43.2933 110.724 44.8971 111.152C46.3931 111.555 48.0165 112.704 49.738 113.927C52.3522 115.789 55.3244 117.896 58.8558 117.896C62.3871 117.896 65.3593 115.789 67.9784 113.927C69.7048 112.704 71.3283 111.555 72.8193 111.152C74.4231 110.724 76.4733 110.911 78.646 111.103C81.9419 111.402 85.3556 111.707 88.2885 110.002C91.2706 108.273 92.7812 104.997 94.1153 102.108C95.0177 100.148 95.8662 98.2961 97.009 97.1564C98.1518 96.0168 99.991 95.162 101.953 94.2581C104.837 92.9269 108.108 91.4139 109.835 88.4272C111.537 85.4847 111.228 82.0706 110.933 78.7695C110.742 76.5933 110.556 74.54 110.987 72.9336C111.38 71.4403 112.532 69.8094 113.749 68.0851Z" fill="url(#paint0_linear_34_181)"/>
<defs>
<linearGradient id="paint0_linear_34_181" x1="5.67958" y1="34.1113" x2="112.091" y2="83.6571" gradientUnits="userSpaceOnUse">
<stop stop-color="white" stop-opacity="0.2"/>
<stop offset="1" stop-color="white" stop-opacity="0"/>
</linearGradient>
</defs>
</svg>
