<svg width="153" height="105" viewBox="0 0 153 105" fill="none" xmlns="http://www.w3.org/2000/svg">
<path fill-rule="evenodd" clip-rule="evenodd" d="M146.236 10.1182C142.094 2.74909 137.598 1.39364 128.444 0.878182C119.299 0.257727 96.3041 0 76.3827 0C56.4232 0 33.4186 0.257728 24.2836 0.868637C15.1486 1.39364 10.6432 2.73955 6.46227 10.1182C2.19545 17.4777 0 30.1541 0 52.4714V52.5477C0 74.7696 2.19545 87.5414 6.46227 94.8245C10.6432 102.194 15.1391 103.53 24.2741 104.15C33.4186 104.685 56.4232 105 76.3827 105C96.3041 105 119.299 104.685 128.453 104.16C137.607 103.54 142.103 102.203 146.246 94.8341C150.551 87.5509 152.727 74.7791 152.727 52.5573V52.5096V52.4809C152.727 30.1541 150.551 17.4777 146.236 10.1182Z" fill="#F44336"/>
<path fill-rule="evenodd" clip-rule="evenodd" d="M57.2729 81.1364V23.8636L105 52.5L57.2729 81.1364Z" fill="#FAFAFA"/>
</svg>
