<?xml version="1.0" encoding="UTF-8"?><svg xmlns="http://www.w3.org/2000/svg" viewBox="0 0 145.11 200.92"><defs><style>.e{fill:#333;}.f{fill:#19aff0;}.f,.g{fill-rule:evenodd;}.g{fill:#6eab3b;}</style></defs><g id="a"/><g id="b"><g id="c"><g id="d"><path class="g" d="M142.8,57.07c4.54,21.3-.9,42.86-13.61,59.25-2.08-13.35-7.79-20.02-14.46-25.67-15.64-13.24-29.35-32.72-9.77-47.34,9.07,11.74,19.75,20.65,24.71,36.83-1.66-16.54-8.22-25.45-17.4-37.63-.69-.91-1.33-1.76-1.97-2.67,17.98-5.6,29.46,2.72,32.56,17.24h-.06Z"/><path class="g" d="M108.27,134.62c-18.84,10.94-41.04,12.39-60.53,5.39,12.07-6.14,16.65-13.61,19.96-21.72,7.74-18.95,22.04-38,42-23.91-8.38,12.28-13.55,25.14-27.43,34.85,15.21-6.67,21.72-15.69,30.42-28.18,.64-.9,1.28-1.81,1.92-2.72,10.89,15.37,6.51,28.82-6.35,36.29Z"/><path class="g" d="M23.84,125.71C7.61,111.14-.6,90.48,.03,69.78c9.55,9.55,18.09,11.58,26.79,12.28,20.45,1.49,42.96,9.24,35.71,32.56-14.25-4.16-28.13-5.12-41.63-15.32,11.05,12.44,21.62,15.8,36.24,20.23,1.07,.32,2.13,.64,3.2,.96-11.26,15.1-25.41,15.1-36.46,5.18l-.05,.05Z"/><path class="g" d="M6.22,42.67C15.08,22.76,32.16,8.51,52.02,2.74c-6.14,12.06-5.44,20.82-3.36,29.25,4.86,19.91,4.48,43.71-19.96,44.04-.43-14.84-3.84-28.34,1.71-44.3-8.38,14.36-8.33,25.46-8.06,40.72,0,1.12,.05,2.24,.05,3.31C4.57,69.67,.2,56.22,6.22,42.67Z"/><path class="g" d="M79.77,.23c21.67,2.24,40.51,14.09,52.14,31.22-13.34-2.14-21.45,1.23-28.87,5.82-17.4,10.78-40.19,17.77-48.04-5.34,13.98-4.96,25.73-12.38,42.65-12.11-16.22-3.53-26.79-.05-41.2,4.91-1.07,.37-2.08,.75-3.15,1.07C53.57,6.96,64.99-1.37,79.77,.18v.05Z"/><path class="f" d="M88.58,72.18c0-9.02-7.31-16.39-16.39-16.39s-16.39,7.31-16.39,16.39,7.31,16.39,16.39,16.39,16.39-7.31,16.39-16.39Z"/><path class="e" d="M5.33,181.66h6.9v4.85H5.33v14.02H0v-33.95H14.11v4.85H5.33v10.24Z"/><path class="e" d="M38.12,200.53h-5.39l-.92-6.16h-6.54l-.92,6.16h-4.89l5.41-33.95h7.81l5.43,33.95Zm-12.16-10.76h5.14l-2.57-17.18-2.57,17.18Z"/><path class="e" d="M44.08,174.72c0-2.74,.65-4.85,1.96-6.31,1.31-1.47,3.27-2.21,5.89-2.21s4.58,.74,5.89,2.21c1.31,1.46,1.96,3.57,1.96,6.31v1.07h-5.04v-1.4c0-1.22-.24-2.09-.71-2.59-.46-.5-1.12-.75-1.96-.75s-1.49,.25-1.96,.75c-.46,.5-.69,1.37-.69,2.59s.26,2.2,.77,3.09c.51,.88,1.15,1.71,1.92,2.51,.78,.79,1.61,1.59,2.51,2.38,.89,.79,1.72,1.66,2.49,2.59,.78,.93,1.43,2,1.94,3.2,.53,1.2,.79,2.61,.79,4.22,0,2.75-.68,4.86-2.03,6.33-1.34,1.48-3.32,2.21-5.93,2.21s-4.61-.74-5.95-2.21c-1.34-1.47-2.01-3.58-2.01-6.33v-2.09h5.06v2.42c0,1.24,.25,2.1,.75,2.59,.5,.48,1.17,.71,2.01,.71s1.5-.24,2.01-.71c.5-.49,.75-1.35,.75-2.59,0-1.15-.26-2.18-.77-3.07-.52-.89-1.16-1.73-1.94-2.53-.77-.79-1.6-1.58-2.49-2.36-.89-.79-1.73-1.66-2.51-2.59-.77-.95-1.42-2.02-1.94-3.22-.52-1.2-.77-2.6-.77-4.22Z"/><path class="e" d="M72.41,200.53h-5.33v-33.95h5.33v14.56h6.06v-14.56h5.43v33.95h-5.43v-14.54h-6.06v14.54Z"/><path class="e" d="M96.85,192.71c0,1.24,.25,2.11,.75,2.61,.5,.49,1.18,.73,2.03,.73s1.5-.24,2.01-.73c.5-.5,.75-1.37,.75-2.61v-18.32c0-1.22-.25-2.09-.75-2.59-.5-.5-1.17-.75-2.01-.75s-1.53,.25-2.03,.75c-.5,.5-.75,1.37-.75,2.59v18.32Zm-5.33-17.99c0-2.74,.69-4.85,2.09-6.31,1.39-1.47,3.4-2.21,6.02-2.21s4.62,.74,6,2.21c1.39,1.46,2.09,3.57,2.09,6.31v17.66c0,2.75-.7,4.86-2.09,6.33-1.38,1.48-3.38,2.21-6,2.21s-4.63-.74-6.02-2.21c-1.39-1.47-2.09-3.58-2.09-6.33v-17.66Z"/><path class="e" d="M115.34,166.57h5.33v33.95h-5.33v-33.95Z"/><path class="e" d="M128.73,166.57h8.44c2.67,0,4.66,.72,5.98,2.15,1.31,1.42,1.96,3.5,1.96,6.25v17.15c0,2.76-.66,4.85-1.96,6.27-1.31,1.42-3.3,2.13-5.98,2.13h-8.44v-33.95Zm5.33,4.85v24.26h3.01c.83,0,1.49-.24,1.99-.73,.49-.49,.73-1.34,.73-2.57v-17.66c0-1.22-.25-2.08-.73-2.57-.49-.49-1.15-.73-1.99-.73h-3.01Z"/></g></g></g></svg>